G04 #@! TF.FileFunction,Copper,L1,Top,Signal*
%FSLAX46Y46*%
G04 Gerber Fmt 4.6, Leading zero omitted, Abs format (unit mm)*
G04 Created by KiCad (PCBNEW 4.0.7-e2-6376~58~ubuntu16.04.1) date Thu Dec 14 21:04:02 2023*
%MOMM*%
%LPD*%
G01*
G04 APERTURE LIST*
%ADD10C,0.100000*%
%ADD11C,1.000000*%
%ADD12R,1.000000X1.000000*%
%ADD13C,1.600000*%
%ADD14R,2.400000X2.400000*%
%ADD15C,2.400000*%
%ADD16R,1.600000X1.600000*%
%ADD17R,2.200000X2.200000*%
%ADD18O,2.200000X2.200000*%
%ADD19R,1.727200X1.727200*%
%ADD20O,1.727200X1.727200*%
%ADD21O,3.010000X1.510000*%
%ADD22O,2.500000X3.000000*%
%ADD23C,2.000000*%
%ADD24O,1.510000X3.010000*%
%ADD25R,1.700000X1.700000*%
%ADD26O,1.700000X1.700000*%
%ADD27O,1.600000X1.600000*%
%ADD28R,1.800000X1.800000*%
%ADD29O,1.800000X1.800000*%
%ADD30C,2.340000*%
%ADD31C,0.600000*%
%ADD32C,0.400000*%
%ADD33C,0.250000*%
G04 APERTURE END LIST*
D10*
D11*
X208050000Y-52340000D03*
X206780000Y-53610000D03*
D12*
X206780000Y-51070000D03*
D13*
X238620000Y-76240000D03*
X233620000Y-76240000D03*
X239650000Y-112730000D03*
X234650000Y-112730000D03*
X230632000Y-118324000D03*
X230632000Y-115824000D03*
X230124000Y-89368000D03*
X230124000Y-86868000D03*
D14*
X243640000Y-65390000D03*
D15*
X238640000Y-65390000D03*
D14*
X238600000Y-51800000D03*
D15*
X243600000Y-51800000D03*
D13*
X214120000Y-95280000D03*
X209120000Y-95280000D03*
X255160000Y-51860000D03*
X250160000Y-51860000D03*
X247190000Y-75390000D03*
X242190000Y-75390000D03*
X210470000Y-108510000D03*
X215470000Y-108510000D03*
D16*
X229350000Y-45980000D03*
D13*
X229350000Y-43480000D03*
X229800000Y-76320000D03*
X224800000Y-76320000D03*
X226820000Y-111750000D03*
X221820000Y-111750000D03*
D16*
X224240000Y-66690000D03*
D13*
X226740000Y-66690000D03*
D16*
X215880000Y-64380000D03*
D13*
X215880000Y-66880000D03*
D16*
X218020000Y-52990000D03*
D13*
X218020000Y-50490000D03*
X206462000Y-78994000D03*
X203962000Y-78994000D03*
X206502000Y-114554000D03*
X206502000Y-117054000D03*
D17*
X260480000Y-71340000D03*
D18*
X250320000Y-71340000D03*
D17*
X250240000Y-67070000D03*
D18*
X260400000Y-67070000D03*
D17*
X250130000Y-62270000D03*
D18*
X260290000Y-62270000D03*
D17*
X260290000Y-57790000D03*
D18*
X250130000Y-57790000D03*
D17*
X232120000Y-69640000D03*
D18*
X232120000Y-59480000D03*
D17*
X265240000Y-49530000D03*
D18*
X265240000Y-59690000D03*
D17*
X250220000Y-41840000D03*
D18*
X260380000Y-41840000D03*
D17*
X236470000Y-41910000D03*
D18*
X246630000Y-41910000D03*
D19*
X264670000Y-81100000D03*
D20*
X267210000Y-81100000D03*
X264670000Y-83640000D03*
X267210000Y-83640000D03*
X264670000Y-86180000D03*
X267210000Y-86180000D03*
X264670000Y-88720000D03*
X267210000Y-88720000D03*
X264670000Y-91260000D03*
X267210000Y-91260000D03*
X264670000Y-93800000D03*
X267210000Y-93800000D03*
X264670000Y-96340000D03*
X267210000Y-96340000D03*
X264670000Y-98880000D03*
X267210000Y-98880000D03*
X264670000Y-101420000D03*
X267210000Y-101420000D03*
X264670000Y-103960000D03*
X267210000Y-103960000D03*
X264670000Y-106500000D03*
X267210000Y-106500000D03*
X264670000Y-109040000D03*
X267210000Y-109040000D03*
X264670000Y-111580000D03*
X267210000Y-111580000D03*
X264670000Y-114120000D03*
X267210000Y-114120000D03*
X264670000Y-116660000D03*
X267210000Y-116660000D03*
X264670000Y-119200000D03*
X267210000Y-119200000D03*
X264670000Y-121740000D03*
X267210000Y-121740000D03*
D21*
X266010000Y-63520000D03*
X266010000Y-66060000D03*
X266010000Y-68600000D03*
D16*
X183480000Y-98110000D03*
D22*
X178480000Y-98110000D03*
D23*
X176980000Y-94110000D03*
X176980000Y-102110000D03*
D16*
X183348000Y-118364000D03*
D22*
X178348000Y-118364000D03*
D23*
X176848000Y-114364000D03*
X176848000Y-122364000D03*
D16*
X183538000Y-70294000D03*
D22*
X178538000Y-70294000D03*
D23*
X177038000Y-66294000D03*
X177038000Y-74294000D03*
X205960000Y-107640000D03*
D24*
X257330000Y-100076000D03*
X254790000Y-100076000D03*
D11*
X208150000Y-58470000D03*
X206880000Y-59740000D03*
D12*
X206880000Y-57200000D03*
D11*
X208170000Y-64480000D03*
X206900000Y-65750000D03*
D12*
X206900000Y-63210000D03*
D25*
X212560000Y-74930000D03*
D26*
X215100000Y-74930000D03*
X217640000Y-74930000D03*
D25*
X242610000Y-96590000D03*
D26*
X245150000Y-96590000D03*
X247690000Y-96590000D03*
D16*
X234530000Y-125920000D03*
D27*
X254850000Y-118300000D03*
X237070000Y-125920000D03*
X252310000Y-118300000D03*
X239610000Y-125920000D03*
X249770000Y-118300000D03*
X242150000Y-125920000D03*
X247230000Y-118300000D03*
X244690000Y-125920000D03*
X244690000Y-118300000D03*
X247230000Y-125920000D03*
X242150000Y-118300000D03*
X249770000Y-125920000D03*
X239610000Y-118300000D03*
X252310000Y-125920000D03*
X237070000Y-118300000D03*
X254850000Y-125920000D03*
X234530000Y-118300000D03*
D16*
X233720000Y-90040000D03*
D27*
X254040000Y-82420000D03*
X236260000Y-90040000D03*
X251500000Y-82420000D03*
X238800000Y-90040000D03*
X248960000Y-82420000D03*
X241340000Y-90040000D03*
X246420000Y-82420000D03*
X243880000Y-90040000D03*
X243880000Y-82420000D03*
X246420000Y-90040000D03*
X241340000Y-82420000D03*
X248960000Y-90040000D03*
X238800000Y-82420000D03*
X251500000Y-90040000D03*
X236260000Y-82420000D03*
X254040000Y-90040000D03*
X233720000Y-82420000D03*
D28*
X257230000Y-75530000D03*
D29*
X254690000Y-75530000D03*
X252150000Y-75530000D03*
D28*
X260390000Y-52160000D03*
D29*
X260390000Y-49620000D03*
X260390000Y-47080000D03*
D28*
X230886000Y-52070000D03*
D29*
X228346000Y-52070000D03*
X225806000Y-52070000D03*
D30*
X236180000Y-96426000D03*
X233680000Y-106426000D03*
X231180000Y-96426000D03*
X244254000Y-106466000D03*
X254254000Y-108966000D03*
X244254000Y-111466000D03*
X202786000Y-100036000D03*
X192786000Y-97536000D03*
X202786000Y-95036000D03*
X201676000Y-112268000D03*
X191676000Y-109768000D03*
X201676000Y-107268000D03*
X194912000Y-88860000D03*
X184912000Y-86360000D03*
X194912000Y-83860000D03*
X201770000Y-123150000D03*
X191770000Y-120650000D03*
X201770000Y-118150000D03*
D16*
X211328000Y-124460000D03*
D27*
X226568000Y-116840000D03*
X213868000Y-124460000D03*
X224028000Y-116840000D03*
X216408000Y-124460000D03*
X221488000Y-116840000D03*
X218948000Y-124460000D03*
X218948000Y-116840000D03*
X221488000Y-124460000D03*
X216408000Y-116840000D03*
X224028000Y-124460000D03*
X213868000Y-116840000D03*
X226568000Y-124460000D03*
X211328000Y-116840000D03*
D16*
X211582000Y-89916000D03*
D27*
X226822000Y-82296000D03*
X214122000Y-89916000D03*
X224282000Y-82296000D03*
X216662000Y-89916000D03*
X221742000Y-82296000D03*
X219202000Y-89916000D03*
X219202000Y-82296000D03*
X221742000Y-89916000D03*
X216662000Y-82296000D03*
X224282000Y-89916000D03*
X214122000Y-82296000D03*
X226822000Y-89916000D03*
X211582000Y-82296000D03*
D28*
X227076000Y-58420000D03*
D29*
X224536000Y-58420000D03*
X221996000Y-58420000D03*
D31*
X237530000Y-102350000D03*
X219960000Y-102345000D03*
X209620000Y-112150000D03*
X226590000Y-108920000D03*
X254670000Y-64740000D03*
X225360000Y-103615000D03*
X234330000Y-103480000D03*
X205130000Y-66880000D03*
X199350000Y-66400000D03*
X225360000Y-101075000D03*
X214122000Y-101092000D03*
X219960000Y-101075000D03*
X220218000Y-78232000D03*
X215670000Y-96690000D03*
X248666000Y-72898000D03*
X198440000Y-115410000D03*
X219960000Y-98535000D03*
X225360000Y-98535000D03*
X225360000Y-107425000D03*
X219960000Y-107425000D03*
X209420000Y-69640000D03*
X218490000Y-110040000D03*
X216408000Y-69596000D03*
X263620000Y-71830000D03*
X216154000Y-70866000D03*
X263620000Y-74210000D03*
X207994000Y-125984000D03*
X230378000Y-83788000D03*
X235204000Y-88138000D03*
X196850000Y-103124000D03*
X225360000Y-104885000D03*
X212460000Y-104880000D03*
X202410000Y-82680000D03*
X234729347Y-72197990D03*
D32*
X218948000Y-124460000D02*
X223266000Y-120142000D01*
X223266000Y-120142000D02*
X237768000Y-120142000D01*
X237768000Y-120142000D02*
X239610000Y-118300000D01*
X227076000Y-58420000D02*
X231060000Y-58420000D01*
X231060000Y-58420000D02*
X232120000Y-59480000D01*
X219960000Y-102345000D02*
X237525000Y-102345000D01*
X237525000Y-102345000D02*
X237530000Y-102350000D01*
X238620000Y-76240000D02*
X239419999Y-77039999D01*
X239419999Y-77039999D02*
X250640001Y-77039999D01*
X250640001Y-77039999D02*
X252150000Y-75530000D01*
X225360000Y-103615000D02*
X226510000Y-103615000D01*
X226510000Y-103615000D02*
X226645000Y-103480000D01*
X226645000Y-103480000D02*
X233905736Y-103480000D01*
X233905736Y-103480000D02*
X234330000Y-103480000D01*
X220790000Y-54560000D02*
X228854000Y-54560000D01*
X228854000Y-54560000D02*
X229820000Y-54560000D01*
X230886000Y-53370000D02*
X229696000Y-54560000D01*
X230886000Y-52070000D02*
X230886000Y-53370000D01*
X229696000Y-54560000D02*
X228854000Y-54560000D01*
X230960000Y-52120000D02*
X232664000Y-52120000D01*
X232664000Y-52120000D02*
X238280000Y-52120000D01*
X230886000Y-52070000D02*
X232614000Y-52070000D01*
X232614000Y-52070000D02*
X232664000Y-52120000D01*
X252887000Y-102108000D02*
X251565000Y-103430000D01*
X252887000Y-102108000D02*
X253508000Y-102108000D01*
X254790000Y-100826000D02*
X254790000Y-100076000D01*
X253508000Y-102108000D02*
X254790000Y-100826000D01*
X199350000Y-66400000D02*
X182182000Y-66400000D01*
X178538000Y-70044000D02*
X182182000Y-66400000D01*
X178538000Y-70294000D02*
X178538000Y-70044000D01*
X221820000Y-111750000D02*
X210020000Y-111750000D01*
X210020000Y-111750000D02*
X209620000Y-112150000D01*
X221820000Y-111750000D02*
X223760000Y-111750000D01*
X223760000Y-111750000D02*
X226590000Y-108920000D01*
X251565000Y-103430000D02*
X234380000Y-103430000D01*
X234380000Y-103430000D02*
X234330000Y-103480000D01*
X205130000Y-66880000D02*
X199830000Y-66880000D01*
X215880000Y-66880000D02*
X205130000Y-66880000D01*
X227910000Y-74510000D02*
X231890000Y-74510000D01*
X231890000Y-74510000D02*
X233620000Y-76240000D01*
X226100000Y-76320000D02*
X227910000Y-74510000D01*
X224800000Y-76320000D02*
X226100000Y-76320000D01*
X235580000Y-74280000D02*
X241080000Y-74280000D01*
X241080000Y-74280000D02*
X242190000Y-75390000D01*
X233620000Y-76240000D02*
X235580000Y-74280000D01*
X236260000Y-90040000D02*
X238800000Y-90040000D01*
X199830000Y-66880000D02*
X199350000Y-66400000D01*
X237070000Y-125920000D02*
X239610000Y-125920000D01*
X266010000Y-66060000D02*
X264105000Y-66060000D01*
X264105000Y-66060000D02*
X262785000Y-64740000D01*
X262785000Y-64740000D02*
X247670000Y-64740000D01*
X247670000Y-64740000D02*
X245850000Y-62920000D01*
X245850000Y-62920000D02*
X241110000Y-62920000D01*
X241110000Y-62920000D02*
X238640000Y-65390000D01*
X218020000Y-52990000D02*
X219220000Y-52990000D01*
X219220000Y-52990000D02*
X220790000Y-54560000D01*
X229820000Y-54560000D02*
X230960000Y-53420000D01*
X230960000Y-53420000D02*
X230960000Y-52120000D01*
X215880000Y-66880000D02*
X217011370Y-66880000D01*
X225000000Y-64950000D02*
X226740000Y-66690000D01*
X217011370Y-66880000D02*
X218941370Y-64950000D01*
X218941370Y-64950000D02*
X225000000Y-64950000D01*
X238280000Y-52120000D02*
X238600000Y-51800000D01*
X255160000Y-51860000D02*
X260090000Y-51860000D01*
X260090000Y-51860000D02*
X260390000Y-52160000D01*
X246630000Y-41910000D02*
X250150000Y-41910000D01*
X250150000Y-41910000D02*
X250220000Y-41840000D01*
D33*
X230632000Y-118324000D02*
X228052000Y-118324000D01*
X228052000Y-118324000D02*
X226568000Y-116840000D01*
X230632000Y-118324000D02*
X234506000Y-118324000D01*
X234506000Y-118324000D02*
X234530000Y-118300000D01*
X228028000Y-118300000D02*
X234530000Y-118300000D01*
X228028000Y-118300000D02*
X226568000Y-116840000D01*
X224028000Y-116840000D02*
X225843999Y-115024001D01*
X225843999Y-115024001D02*
X229832001Y-115024001D01*
X229832001Y-115024001D02*
X230632000Y-115824000D01*
X230124000Y-89368000D02*
X233048000Y-89368000D01*
X233048000Y-89368000D02*
X233720000Y-90040000D01*
X226822000Y-82296000D02*
X233596000Y-82296000D01*
X233596000Y-82296000D02*
X233720000Y-82420000D01*
D32*
X234697011Y-68562989D02*
X233620000Y-69640000D01*
X237780535Y-68562989D02*
X234697011Y-68562989D01*
X240953524Y-65390000D02*
X237780535Y-68562989D01*
X233620000Y-69640000D02*
X232120000Y-69640000D01*
X243640000Y-65390000D02*
X240953524Y-65390000D01*
X257230000Y-75530000D02*
X257230000Y-74230000D01*
X257230000Y-74230000D02*
X256680000Y-73680000D01*
X256680000Y-73680000D02*
X248900000Y-73680000D01*
X248900000Y-73680000D02*
X247190000Y-75390000D01*
X243640000Y-65390000D02*
X250060000Y-65390000D01*
X250060000Y-65390000D02*
X250240000Y-65570000D01*
X250240000Y-65570000D02*
X250240000Y-67070000D01*
X260390000Y-49620000D02*
X252400000Y-49620000D01*
X252400000Y-49620000D02*
X250160000Y-51860000D01*
X243600000Y-51800000D02*
X249590000Y-57790000D01*
X249590000Y-57790000D02*
X250130000Y-57790000D01*
D33*
X219964000Y-99314000D02*
X213154000Y-99314000D01*
X213154000Y-99314000D02*
X209120000Y-95280000D01*
X221725000Y-101075000D02*
X219964000Y-99314000D01*
X225360000Y-101075000D02*
X221725000Y-101075000D01*
X212097999Y-94480001D02*
X216662000Y-89916000D01*
X209919999Y-94480001D02*
X212097999Y-94480001D01*
X209120000Y-95280000D02*
X209919999Y-94480001D01*
X202786000Y-95036000D02*
X208876000Y-95036000D01*
X208876000Y-95036000D02*
X209120000Y-95280000D01*
X219960000Y-101075000D02*
X214139000Y-101075000D01*
X214139000Y-101075000D02*
X214122000Y-101092000D01*
X210238001Y-106098001D02*
X212650000Y-108510000D01*
X212650000Y-108510000D02*
X215470000Y-108510000D01*
X201676000Y-107268000D02*
X202845999Y-106098001D01*
X202845999Y-106098001D02*
X210238001Y-106098001D01*
D32*
X220980000Y-113538000D02*
X225032000Y-113538000D01*
X225032000Y-113538000D02*
X226820000Y-111750000D01*
X219747999Y-114770001D02*
X220980000Y-113538000D01*
X218948000Y-116840000D02*
X219747999Y-116040001D01*
X219747999Y-116040001D02*
X219747999Y-114770001D01*
X220218000Y-78232000D02*
X227584000Y-78232000D01*
X229800000Y-76320000D02*
X227888000Y-78232000D01*
X227888000Y-78232000D02*
X227584000Y-78232000D01*
X265240000Y-47270000D02*
X265240000Y-49530000D01*
X230149999Y-44279999D02*
X258862791Y-44279999D01*
X260390000Y-47080000D02*
X260390000Y-45807208D01*
X260390000Y-45807208D02*
X258862791Y-44279999D01*
X229350000Y-43480000D02*
X230149999Y-44279999D01*
X260390000Y-47080000D02*
X265050000Y-47080000D01*
X265050000Y-47080000D02*
X265240000Y-47270000D01*
X265240000Y-47270000D02*
X265240000Y-48770000D01*
X215880000Y-64380000D02*
X215880000Y-63180000D01*
X215880000Y-63180000D02*
X220640000Y-58420000D01*
X220640000Y-58420000D02*
X220723208Y-58420000D01*
X220723208Y-58420000D02*
X221996000Y-58420000D01*
X206780000Y-53610000D02*
X206280001Y-54109999D01*
X206240001Y-54109999D02*
X205232000Y-55118000D01*
X206280001Y-54109999D02*
X206240001Y-54109999D01*
X205232000Y-55118000D02*
X205232000Y-58092000D01*
X205232000Y-58092000D02*
X206880000Y-59740000D01*
X215670000Y-96690000D02*
X215969999Y-96390001D01*
X220719999Y-96390001D02*
X220729998Y-96400000D01*
X215969999Y-96390001D02*
X220719999Y-96390001D01*
X220729998Y-96400000D02*
X225480000Y-96400000D01*
X225480000Y-96400000D02*
X228330000Y-93550000D01*
X242610000Y-95340000D02*
X242610000Y-96590000D01*
X228330000Y-93550000D02*
X240820000Y-93550000D01*
X240820000Y-93550000D02*
X242610000Y-95340000D01*
X206970000Y-53420000D02*
X206780000Y-53610000D01*
X248666000Y-72898000D02*
X219672000Y-72898000D01*
X219672000Y-72898000D02*
X217640000Y-74930000D01*
X218020000Y-50490000D02*
X224226000Y-50490000D01*
X224226000Y-50490000D02*
X225806000Y-52070000D01*
D33*
X206462000Y-78994000D02*
X208202001Y-80734001D01*
X208202001Y-80734001D02*
X212560001Y-80734001D01*
X212560001Y-80734001D02*
X214122000Y-82296000D01*
X203962000Y-78994000D02*
X199778000Y-78994000D01*
X199778000Y-78994000D02*
X194912000Y-83860000D01*
X211582000Y-82296000D02*
X206132630Y-82296000D01*
X203962000Y-78994000D02*
X203962000Y-80125370D01*
X203962000Y-80125370D02*
X206132630Y-82296000D01*
X194920000Y-83930000D02*
X184250000Y-83930000D01*
X183480000Y-97060000D02*
X183480000Y-98110000D01*
X184250000Y-83930000D02*
X183190000Y-84990000D01*
X183190000Y-84990000D02*
X183190000Y-96770000D01*
X183190000Y-96770000D02*
X183480000Y-97060000D01*
X206502000Y-114554000D02*
X211582000Y-114554000D01*
X211582000Y-114554000D02*
X213868000Y-116840000D01*
X198440000Y-115410000D02*
X205646000Y-115410000D01*
X205646000Y-115410000D02*
X206502000Y-114554000D01*
X212090000Y-115062000D02*
X213868000Y-116840000D01*
X201770000Y-118150000D02*
X205406000Y-118150000D01*
X205406000Y-118150000D02*
X206502000Y-117054000D01*
X209300000Y-116840000D02*
X210566000Y-116840000D01*
X210566000Y-116840000D02*
X211328000Y-116840000D01*
X206502000Y-117054000D02*
X207633370Y-117054000D01*
X207633370Y-117054000D02*
X207847370Y-116840000D01*
X207847370Y-116840000D02*
X210566000Y-116840000D01*
X201740000Y-118270000D02*
X183442000Y-118270000D01*
X183442000Y-118270000D02*
X183348000Y-118364000D01*
X201740000Y-118120000D02*
X201740000Y-118270000D01*
D32*
X263485634Y-68600000D02*
X261955634Y-67070000D01*
X266010000Y-68600000D02*
X263485634Y-68600000D01*
X261955634Y-67070000D02*
X260400000Y-67070000D01*
X266010000Y-63520000D02*
X261540000Y-63520000D01*
X261540000Y-63520000D02*
X260290000Y-62270000D01*
D33*
X246630022Y-79669978D02*
X243880000Y-82420000D01*
X264670000Y-81100000D02*
X257549233Y-81100000D01*
X257549233Y-81100000D02*
X255709200Y-79259967D01*
X255709200Y-79259967D02*
X250857211Y-79259967D01*
X250447200Y-79669978D02*
X246630022Y-79669978D01*
X250857211Y-79259967D02*
X250447200Y-79669978D01*
X244610033Y-79149967D02*
X241340000Y-82420000D01*
X250330801Y-79149967D02*
X244610033Y-79149967D01*
X250670811Y-78809956D02*
X250330801Y-79149967D01*
X264919956Y-78809956D02*
X250670811Y-78809956D01*
X267210000Y-81100000D02*
X264919956Y-78809956D01*
X263448686Y-83640000D02*
X264670000Y-83640000D01*
X262585087Y-82776401D02*
X263448686Y-83640000D01*
X257952812Y-82776401D02*
X262585087Y-82776401D01*
X255336400Y-80159989D02*
X257952812Y-82776401D01*
X249769999Y-81620001D02*
X251230011Y-80159989D01*
X249759999Y-81620001D02*
X249769999Y-81620001D01*
X248960000Y-82420000D02*
X249759999Y-81620001D01*
X251230011Y-80159989D02*
X255336400Y-80159989D01*
X267210000Y-83640000D02*
X266010000Y-82440000D01*
X266010000Y-82440000D02*
X263060000Y-82440000D01*
X263060000Y-82440000D02*
X262457178Y-81837178D01*
X262457178Y-81837178D02*
X257650000Y-81837178D01*
X257650000Y-81837178D02*
X255522800Y-79709978D01*
X255522800Y-79709978D02*
X251043611Y-79709978D01*
X251043611Y-79709978D02*
X250633600Y-80119989D01*
X250633600Y-80119989D02*
X248720011Y-80119989D01*
X248720011Y-80119989D02*
X246420000Y-82420000D01*
X257800000Y-86180000D02*
X254040000Y-82420000D01*
X264670000Y-86180000D02*
X257800000Y-86180000D01*
X255150000Y-80610000D02*
X253310000Y-80610000D01*
X253310000Y-80610000D02*
X251500000Y-82420000D01*
X258200000Y-83660000D02*
X255150000Y-80610000D01*
X261890000Y-83660000D02*
X258200000Y-83660000D01*
X263130000Y-84900000D02*
X261890000Y-83660000D01*
X265920000Y-84900000D02*
X263130000Y-84900000D01*
X266336401Y-85316401D02*
X265920000Y-84900000D01*
X267210000Y-86180000D02*
X266346401Y-85316401D01*
X266346401Y-85316401D02*
X266336401Y-85316401D01*
X263448686Y-88720000D02*
X264670000Y-88720000D01*
X252625001Y-91165001D02*
X261003685Y-91165001D01*
X261003685Y-91165001D02*
X263448686Y-88720000D01*
X251500000Y-90040000D02*
X252625001Y-91165001D01*
X258940000Y-87430000D02*
X265920000Y-87430000D01*
X265920000Y-87430000D02*
X267210000Y-88720000D01*
X256330000Y-90040000D02*
X258940000Y-87430000D01*
X254040000Y-90040000D02*
X256330000Y-90040000D01*
X248940000Y-92570000D02*
X263360000Y-92570000D01*
X263360000Y-92570000D02*
X264670000Y-91260000D01*
X247219999Y-90849999D02*
X248940000Y-92570000D01*
X246420000Y-90040000D02*
X247219999Y-90839999D01*
X247219999Y-90839999D02*
X247219999Y-90849999D01*
X263730000Y-90020000D02*
X265970000Y-90020000D01*
X265970000Y-90020000D02*
X267210000Y-91260000D01*
X261850000Y-91900000D02*
X263730000Y-90020000D01*
X250820000Y-91900000D02*
X261850000Y-91900000D01*
X248960000Y-90040000D02*
X250820000Y-91900000D01*
X264670000Y-93800000D02*
X247640000Y-93800000D01*
X247640000Y-93800000D02*
X243880000Y-90040000D01*
X246142476Y-94300000D02*
X262630000Y-94300000D01*
X262630000Y-94300000D02*
X264670000Y-96340000D01*
X242682475Y-90839999D02*
X246142476Y-94300000D01*
X242139999Y-90839999D02*
X242682475Y-90839999D01*
X241340000Y-90040000D02*
X242139999Y-90839999D01*
D32*
X259769000Y-101360000D02*
X264610000Y-101360000D01*
X257330000Y-100076000D02*
X258485000Y-100076000D01*
X258485000Y-100076000D02*
X259769000Y-101360000D01*
X264610000Y-101360000D02*
X264670000Y-101420000D01*
D33*
X225360000Y-98535000D02*
X252747000Y-98535000D01*
X260505399Y-100231399D02*
X266021399Y-100231399D01*
X252747000Y-98535000D02*
X253238000Y-98044000D01*
X253238000Y-98044000D02*
X258318000Y-98044000D01*
X258318000Y-98044000D02*
X260505399Y-100231399D01*
X266021399Y-100231399D02*
X267210000Y-101420000D01*
X220960000Y-98535000D02*
X225360000Y-98535000D01*
X219960000Y-98535000D02*
X220960000Y-98535000D01*
X229870000Y-104648000D02*
X227093000Y-107425000D01*
X227093000Y-107425000D02*
X225360000Y-107425000D01*
X262760686Y-104648000D02*
X229870000Y-104648000D01*
X264670000Y-103960000D02*
X263448686Y-103960000D01*
X263448686Y-103960000D02*
X262760686Y-104648000D01*
X219960000Y-107425000D02*
X225360000Y-107425000D01*
X262890000Y-109220000D02*
X262890000Y-108280000D01*
X262890000Y-108280000D02*
X264670000Y-106500000D01*
X260096000Y-112014000D02*
X262890000Y-109220000D01*
X251956000Y-112014000D02*
X248330000Y-115640000D01*
X251956000Y-112014000D02*
X260096000Y-112014000D01*
X248330000Y-115640000D02*
X244810000Y-115640000D01*
X244810000Y-115640000D02*
X242150000Y-118300000D01*
X244690000Y-118300000D02*
X246660000Y-116330000D01*
X246660000Y-116330000D02*
X248400000Y-116330000D01*
X262966000Y-110744000D02*
X264670000Y-109040000D01*
X248400000Y-116330000D02*
X252208000Y-112522000D01*
X252208000Y-112522000D02*
X260350000Y-112522000D01*
X260350000Y-112522000D02*
X262128000Y-110744000D01*
X262128000Y-110744000D02*
X262966000Y-110744000D01*
X247230000Y-118300000D02*
X252476000Y-113054000D01*
X252476000Y-113054000D02*
X260580000Y-113054000D01*
X260580000Y-113054000D02*
X262054000Y-111580000D01*
X262054000Y-111580000D02*
X264670000Y-111580000D01*
X261380399Y-112890011D02*
X265899989Y-112890011D01*
X260766400Y-113504011D02*
X261380399Y-112890011D01*
X265899989Y-112890011D02*
X267210000Y-111580000D01*
X254565989Y-113504011D02*
X260766400Y-113504011D01*
X249770000Y-118300000D02*
X254565989Y-113504011D01*
X256490000Y-114120000D02*
X252310000Y-118300000D01*
X264670000Y-114120000D02*
X256490000Y-114120000D01*
X254850000Y-118300000D02*
X255649999Y-117500001D01*
X255649999Y-117500001D02*
X258659999Y-117500001D01*
X258659999Y-117500001D02*
X260790000Y-115370000D01*
X260790000Y-115370000D02*
X265960000Y-115370000D01*
X265960000Y-115370000D02*
X267210000Y-114120000D01*
X255649999Y-124070001D02*
X263060000Y-116660000D01*
X263060000Y-116660000D02*
X264670000Y-116660000D01*
X254850000Y-125920000D02*
X255649999Y-125120001D01*
X255649999Y-125120001D02*
X255649999Y-124070001D01*
X265940000Y-117930000D02*
X267210000Y-116660000D01*
X258459989Y-123120011D02*
X263650000Y-117930000D01*
X258459989Y-124773601D02*
X258459989Y-123120011D01*
X256033590Y-127200000D02*
X258459989Y-124773601D01*
X263650000Y-117930000D02*
X265940000Y-117930000D01*
X253590000Y-127200000D02*
X256033590Y-127200000D01*
X252310000Y-125920000D02*
X253590000Y-127200000D01*
X256219989Y-127650011D02*
X251500011Y-127650011D01*
X251500011Y-127650011D02*
X249770000Y-125920000D01*
X264670000Y-119200000D02*
X256219989Y-127650011D01*
X247230000Y-125920000D02*
X249440020Y-128130020D01*
X264170870Y-120480000D02*
X265930000Y-120480000D01*
X249440020Y-128130020D02*
X256520850Y-128130020D01*
X256520850Y-128130020D02*
X264170870Y-120480000D01*
X265930000Y-120480000D02*
X267210000Y-119200000D01*
X257829969Y-128580031D02*
X264670000Y-121740000D01*
X247350031Y-128580031D02*
X257829969Y-128580031D01*
X244690000Y-125920000D02*
X247350031Y-128580031D01*
X245260042Y-129030042D02*
X242150000Y-125920000D01*
X259919958Y-129030042D02*
X245260042Y-129030042D01*
X267210000Y-121740000D02*
X259919958Y-129030042D01*
X208440000Y-71720000D02*
X183914000Y-71720000D01*
X183538000Y-70294000D02*
X183538000Y-71344000D01*
X183538000Y-71344000D02*
X183914000Y-71720000D01*
X209420000Y-69640000D02*
X209420000Y-70740000D01*
X209420000Y-70740000D02*
X208440000Y-71720000D01*
X218490000Y-110040000D02*
X208360000Y-110040000D01*
X208360000Y-110040000D02*
X205960000Y-107640000D01*
X218186000Y-71374000D02*
X216408000Y-69596000D01*
X233680000Y-71374000D02*
X218186000Y-71374000D01*
X235966000Y-69088000D02*
X233680000Y-71374000D01*
X261978000Y-69088000D02*
X235966000Y-69088000D01*
X263620000Y-70730000D02*
X261978000Y-69088000D01*
X263620000Y-71830000D02*
X263620000Y-70730000D01*
X216453999Y-71165999D02*
X216154000Y-70866000D01*
X217112011Y-71824011D02*
X216453999Y-71165999D01*
X233866400Y-71824011D02*
X217112011Y-71824011D01*
X235840410Y-69850000D02*
X233866400Y-71824011D01*
X260564998Y-74210000D02*
X256204998Y-69850000D01*
X263620000Y-74210000D02*
X260564998Y-74210000D01*
X256204998Y-69850000D02*
X235840410Y-69850000D01*
X206440000Y-51410000D02*
X206780000Y-51070000D01*
X207994000Y-125984000D02*
X225044000Y-125984000D01*
X225044000Y-125984000D02*
X226568000Y-124460000D01*
X249976000Y-111466000D02*
X252476000Y-108966000D01*
X252476000Y-108966000D02*
X254254000Y-108966000D01*
X244254000Y-111466000D02*
X249976000Y-111466000D01*
X230378000Y-83788000D02*
X230378000Y-83938000D01*
X230378000Y-83938000D02*
X234578000Y-88138000D01*
X234578000Y-88138000D02*
X234779736Y-88138000D01*
X234779736Y-88138000D02*
X235204000Y-88138000D01*
X224282000Y-89916000D02*
X226060000Y-88138000D01*
X226060000Y-88138000D02*
X226934998Y-88138000D01*
X226934998Y-88138000D02*
X235204000Y-88138000D01*
X192786000Y-97536000D02*
X193548000Y-98298000D01*
X202786000Y-100036000D02*
X195286000Y-100036000D01*
X195286000Y-100036000D02*
X193548000Y-98298000D01*
X222853000Y-103378000D02*
X197104000Y-103378000D01*
X197104000Y-103378000D02*
X196850000Y-103124000D01*
X225360000Y-104885000D02*
X224360000Y-104885000D01*
X224360000Y-104885000D02*
X222853000Y-103378000D01*
X211188000Y-104902000D02*
X196542000Y-104902000D01*
X196542000Y-104902000D02*
X191676000Y-109768000D01*
X212460000Y-104880000D02*
X211210000Y-104880000D01*
X211210000Y-104880000D02*
X211188000Y-104902000D01*
X191676000Y-109768000D02*
X194176000Y-112268000D01*
X194176000Y-112268000D02*
X201676000Y-112268000D01*
X202410000Y-82680000D02*
X202410000Y-83780000D01*
X197330000Y-88860000D02*
X196566629Y-88860000D01*
X202410000Y-83780000D02*
X197330000Y-88860000D01*
X196566629Y-88860000D02*
X194912000Y-88860000D01*
X194912000Y-88860000D02*
X187412000Y-88860000D01*
X187412000Y-88860000D02*
X184912000Y-86360000D01*
X191770000Y-120650000D02*
X191770000Y-122304629D01*
X191770000Y-122304629D02*
X192615371Y-123150000D01*
X192615371Y-123150000D02*
X201770000Y-123150000D01*
X234305083Y-72197990D02*
X234729347Y-72197990D01*
X234229051Y-72274022D02*
X234305083Y-72197990D01*
X217755978Y-72274022D02*
X234229051Y-72274022D01*
X215100000Y-74930000D02*
X217755978Y-72274022D01*
M02*
