G04 #@! TF.FileFunction,Soldermask,Top*
%FSLAX46Y46*%
G04 Gerber Fmt 4.6, Leading zero omitted, Abs format (unit mm)*
G04 Created by KiCad (PCBNEW 4.0.7-e2-6376~58~ubuntu16.04.1) date Thu Dec 14 21:04:02 2023*
%MOMM*%
%LPD*%
G01*
G04 APERTURE LIST*
%ADD10C,0.100000*%
%ADD11C,1.400000*%
%ADD12R,1.400000X1.400000*%
%ADD13C,2.000000*%
%ADD14R,2.800000X2.800000*%
%ADD15C,2.800000*%
%ADD16R,2.000000X2.000000*%
%ADD17R,2.600000X2.600000*%
%ADD18O,2.600000X2.600000*%
%ADD19R,2.127200X2.127200*%
%ADD20O,2.127200X2.127200*%
%ADD21O,3.410000X1.910000*%
%ADD22O,2.900000X3.400000*%
%ADD23C,2.400000*%
%ADD24O,1.910000X3.410000*%
%ADD25R,2.100000X2.100000*%
%ADD26O,2.100000X2.100000*%
%ADD27O,2.000000X2.000000*%
%ADD28R,2.200000X2.200000*%
%ADD29O,2.200000X2.200000*%
%ADD30C,2.740000*%
G04 APERTURE END LIST*
D10*
D11*
X208050000Y-52340000D03*
X206780000Y-53610000D03*
D12*
X206780000Y-51070000D03*
D13*
X238620000Y-76240000D03*
X233620000Y-76240000D03*
X239650000Y-112730000D03*
X234650000Y-112730000D03*
X230632000Y-118324000D03*
X230632000Y-115824000D03*
X230124000Y-89368000D03*
X230124000Y-86868000D03*
D14*
X243640000Y-65390000D03*
D15*
X238640000Y-65390000D03*
D14*
X238600000Y-51800000D03*
D15*
X243600000Y-51800000D03*
D13*
X214120000Y-95280000D03*
X209120000Y-95280000D03*
X255160000Y-51860000D03*
X250160000Y-51860000D03*
X247190000Y-75390000D03*
X242190000Y-75390000D03*
X210470000Y-108510000D03*
X215470000Y-108510000D03*
D16*
X229350000Y-45980000D03*
D13*
X229350000Y-43480000D03*
X229800000Y-76320000D03*
X224800000Y-76320000D03*
X226820000Y-111750000D03*
X221820000Y-111750000D03*
D16*
X224240000Y-66690000D03*
D13*
X226740000Y-66690000D03*
D16*
X215880000Y-64380000D03*
D13*
X215880000Y-66880000D03*
D16*
X218020000Y-52990000D03*
D13*
X218020000Y-50490000D03*
X206462000Y-78994000D03*
X203962000Y-78994000D03*
X206502000Y-114554000D03*
X206502000Y-117054000D03*
D17*
X260480000Y-71340000D03*
D18*
X250320000Y-71340000D03*
D17*
X250240000Y-67070000D03*
D18*
X260400000Y-67070000D03*
D17*
X250130000Y-62270000D03*
D18*
X260290000Y-62270000D03*
D17*
X260290000Y-57790000D03*
D18*
X250130000Y-57790000D03*
D17*
X232120000Y-69640000D03*
D18*
X232120000Y-59480000D03*
D17*
X265240000Y-49530000D03*
D18*
X265240000Y-59690000D03*
D17*
X250220000Y-41840000D03*
D18*
X260380000Y-41840000D03*
D17*
X236470000Y-41910000D03*
D18*
X246630000Y-41910000D03*
D19*
X264670000Y-81100000D03*
D20*
X267210000Y-81100000D03*
X264670000Y-83640000D03*
X267210000Y-83640000D03*
X264670000Y-86180000D03*
X267210000Y-86180000D03*
X264670000Y-88720000D03*
X267210000Y-88720000D03*
X264670000Y-91260000D03*
X267210000Y-91260000D03*
X264670000Y-93800000D03*
X267210000Y-93800000D03*
X264670000Y-96340000D03*
X267210000Y-96340000D03*
X264670000Y-98880000D03*
X267210000Y-98880000D03*
X264670000Y-101420000D03*
X267210000Y-101420000D03*
X264670000Y-103960000D03*
X267210000Y-103960000D03*
X264670000Y-106500000D03*
X267210000Y-106500000D03*
X264670000Y-109040000D03*
X267210000Y-109040000D03*
X264670000Y-111580000D03*
X267210000Y-111580000D03*
X264670000Y-114120000D03*
X267210000Y-114120000D03*
X264670000Y-116660000D03*
X267210000Y-116660000D03*
X264670000Y-119200000D03*
X267210000Y-119200000D03*
X264670000Y-121740000D03*
X267210000Y-121740000D03*
D21*
X266010000Y-63520000D03*
X266010000Y-66060000D03*
X266010000Y-68600000D03*
D16*
X183480000Y-98110000D03*
D22*
X178480000Y-98110000D03*
D23*
X176980000Y-94110000D03*
X176980000Y-102110000D03*
D16*
X183348000Y-118364000D03*
D22*
X178348000Y-118364000D03*
D23*
X176848000Y-114364000D03*
X176848000Y-122364000D03*
D16*
X183538000Y-70294000D03*
D22*
X178538000Y-70294000D03*
D23*
X177038000Y-66294000D03*
X177038000Y-74294000D03*
X205960000Y-107640000D03*
D24*
X257330000Y-100076000D03*
X254790000Y-100076000D03*
D11*
X208150000Y-58470000D03*
X206880000Y-59740000D03*
D12*
X206880000Y-57200000D03*
D11*
X208170000Y-64480000D03*
X206900000Y-65750000D03*
D12*
X206900000Y-63210000D03*
D25*
X212560000Y-74930000D03*
D26*
X215100000Y-74930000D03*
X217640000Y-74930000D03*
D25*
X242610000Y-96590000D03*
D26*
X245150000Y-96590000D03*
X247690000Y-96590000D03*
D16*
X234530000Y-125920000D03*
D27*
X254850000Y-118300000D03*
X237070000Y-125920000D03*
X252310000Y-118300000D03*
X239610000Y-125920000D03*
X249770000Y-118300000D03*
X242150000Y-125920000D03*
X247230000Y-118300000D03*
X244690000Y-125920000D03*
X244690000Y-118300000D03*
X247230000Y-125920000D03*
X242150000Y-118300000D03*
X249770000Y-125920000D03*
X239610000Y-118300000D03*
X252310000Y-125920000D03*
X237070000Y-118300000D03*
X254850000Y-125920000D03*
X234530000Y-118300000D03*
D16*
X233720000Y-90040000D03*
D27*
X254040000Y-82420000D03*
X236260000Y-90040000D03*
X251500000Y-82420000D03*
X238800000Y-90040000D03*
X248960000Y-82420000D03*
X241340000Y-90040000D03*
X246420000Y-82420000D03*
X243880000Y-90040000D03*
X243880000Y-82420000D03*
X246420000Y-90040000D03*
X241340000Y-82420000D03*
X248960000Y-90040000D03*
X238800000Y-82420000D03*
X251500000Y-90040000D03*
X236260000Y-82420000D03*
X254040000Y-90040000D03*
X233720000Y-82420000D03*
D28*
X257230000Y-75530000D03*
D29*
X254690000Y-75530000D03*
X252150000Y-75530000D03*
D28*
X260390000Y-52160000D03*
D29*
X260390000Y-49620000D03*
X260390000Y-47080000D03*
D28*
X230886000Y-52070000D03*
D29*
X228346000Y-52070000D03*
X225806000Y-52070000D03*
D30*
X236180000Y-96426000D03*
X233680000Y-106426000D03*
X231180000Y-96426000D03*
X244254000Y-106466000D03*
X254254000Y-108966000D03*
X244254000Y-111466000D03*
X202786000Y-100036000D03*
X192786000Y-97536000D03*
X202786000Y-95036000D03*
X201676000Y-112268000D03*
X191676000Y-109768000D03*
X201676000Y-107268000D03*
X194912000Y-88860000D03*
X184912000Y-86360000D03*
X194912000Y-83860000D03*
X201770000Y-123150000D03*
X191770000Y-120650000D03*
X201770000Y-118150000D03*
D16*
X211328000Y-124460000D03*
D27*
X226568000Y-116840000D03*
X213868000Y-124460000D03*
X224028000Y-116840000D03*
X216408000Y-124460000D03*
X221488000Y-116840000D03*
X218948000Y-124460000D03*
X218948000Y-116840000D03*
X221488000Y-124460000D03*
X216408000Y-116840000D03*
X224028000Y-124460000D03*
X213868000Y-116840000D03*
X226568000Y-124460000D03*
X211328000Y-116840000D03*
D16*
X211582000Y-89916000D03*
D27*
X226822000Y-82296000D03*
X214122000Y-89916000D03*
X224282000Y-82296000D03*
X216662000Y-89916000D03*
X221742000Y-82296000D03*
X219202000Y-89916000D03*
X219202000Y-82296000D03*
X221742000Y-89916000D03*
X216662000Y-82296000D03*
X224282000Y-89916000D03*
X214122000Y-82296000D03*
X226822000Y-89916000D03*
X211582000Y-82296000D03*
D28*
X227076000Y-58420000D03*
D29*
X224536000Y-58420000D03*
X221996000Y-58420000D03*
M02*
