M48
;DRILL file {KiCad 4.0.7-e2-6376~58~ubuntu16.04.1} date Thu Dec 14 21:03:58 2023
;FORMAT={-:-/ absolute / inch / decimal}
FMAT,2
INCH,TZ
T1C0.016
T2C0.024
T3C0.031
T4C0.039
T5C0.040
T6C0.043
T7C0.047
T8C0.051
T9C0.063
%
G90
G05
M72
T1
X7.75Y-4.06
X7.8126Y-4.5437
X7.8484Y-2.6142
X7.9689Y-3.2551
X8.076Y-2.6331
X8.1887Y-4.96
X8.2449Y-2.7417
X8.2528Y-4.4154
X8.3646Y-4.1291
X8.43Y-3.98
X8.4909Y-3.8067
X8.51Y-2.79
X8.52Y-2.74
X8.602Y-4.3323
X8.6598Y-3.8793
X8.6598Y-3.9793
X8.6598Y-4.0293
X8.6598Y-4.2293
X8.67Y-3.08
X8.8724Y-3.8793
X8.8724Y-3.9793
X8.8724Y-4.0793
X8.8724Y-4.1293
X8.8724Y-4.2293
X8.9209Y-4.2882
X9.07Y-3.2987
X9.2256Y-4.074
X9.2413Y-2.8424
X9.26Y-3.47
X9.3516Y-4.0295
X9.79Y-2.87
X10.0264Y-2.5488
X10.3787Y-2.828
X10.3787Y-2.9217
T2
X8.1409Y-2.0106
X8.1409Y-2.1106
X8.1449Y-2.252
X8.1449Y-2.352
X8.1457Y-2.4886
X8.1457Y-2.5886
X8.1909Y-2.0606
X8.1949Y-2.302
X8.1957Y-2.5386
T3
X8.03Y-3.11
X8.1284Y-3.11
X8.13Y-4.51
X8.13Y-4.6084
X8.2331Y-3.7512
X8.2862Y-4.272
X8.32Y-4.6
X8.32Y-4.9
X8.33Y-3.24
X8.33Y-3.54
X8.42Y-4.6
X8.42Y-4.9
X8.4299Y-3.7512
X8.43Y-3.24
X8.43Y-3.54
X8.4831Y-4.272
X8.4992Y-2.5346
X8.4992Y-2.6331
X8.52Y-4.6
X8.52Y-4.9
X8.53Y-3.24
X8.53Y-3.54
X8.5835Y-1.9878
X8.5835Y-2.0862
X8.62Y-4.6
X8.62Y-4.9
X8.63Y-3.24
X8.63Y-3.54
X8.72Y-4.6
X8.72Y-4.9
X8.73Y-3.24
X8.73Y-3.54
X8.7331Y-4.3996
X8.82Y-4.6
X8.82Y-4.9
X8.8283Y-2.6256
X8.83Y-3.24
X8.83Y-3.54
X8.8504Y-3.0047
X8.92Y-4.6
X8.92Y-4.9
X8.9268Y-2.6256
X8.9299Y-4.3996
X8.93Y-3.24
X8.93Y-3.54
X9.0295Y-1.7118
X9.0295Y-1.8102
X9.0472Y-3.0047
X9.06Y-3.42
X9.06Y-3.5184
X9.08Y-4.56
X9.08Y-4.6584
X9.1976Y-3.0016
X9.2016Y-3.2449
X9.2016Y-3.5449
X9.2335Y-4.6575
X9.2335Y-4.9575
X9.2382Y-4.4382
X9.3016Y-3.2449
X9.3016Y-3.5449
X9.3335Y-4.6575
X9.3335Y-4.9575
X9.3945Y-3.0016
X9.4016Y-3.2449
X9.4016Y-3.5449
X9.4335Y-4.6575
X9.4335Y-4.9575
X9.435Y-4.4382
X9.5016Y-3.2449
X9.5016Y-3.5449
X9.5335Y-4.6575
X9.5335Y-4.9575
X9.535Y-2.9681
X9.6016Y-3.2449
X9.6016Y-3.5449
X9.6335Y-4.6575
X9.6335Y-4.9575
X9.7016Y-3.2449
X9.7016Y-3.5449
X9.7319Y-2.9681
X9.7335Y-4.6575
X9.7335Y-4.9575
X9.8016Y-3.2449
X9.8016Y-3.5449
X9.8335Y-4.6575
X9.8335Y-4.9575
X9.8488Y-2.0417
X9.9016Y-3.2449
X9.9016Y-3.5449
X9.9335Y-4.6575
X9.9335Y-4.9575
X10.0016Y-3.2449
X10.0016Y-3.5449
X10.0335Y-4.6575
X10.0335Y-4.9575
X10.0457Y-2.0417
T4
X8.1087Y-4.2378
X8.3685Y-2.95
X8.4685Y-2.95
X8.5685Y-2.95
X8.74Y-2.3
X8.84Y-2.3
X8.89Y-2.05
X8.94Y-2.3
X8.99Y-2.05
X9.09Y-2.05
X9.5516Y-3.8028
X9.6516Y-3.8028
X9.7516Y-3.8028
X9.9272Y-2.9736
X10.0272Y-2.9736
X10.0311Y-3.94
X10.1272Y-2.9736
X10.1311Y-3.94
X10.2516Y-1.8535
X10.2516Y-1.9535
X10.2516Y-2.0535
X10.4728Y-2.5008
X10.4728Y-2.6008
X10.4728Y-2.7008
T5
X10.4201Y-3.1929
X10.4201Y-3.2929
X10.4201Y-3.3929
X10.4201Y-3.4929
X10.4201Y-3.5929
X10.4201Y-3.6929
X10.4201Y-3.7929
X10.4201Y-3.8929
X10.4201Y-3.9929
X10.4201Y-4.0929
X10.4201Y-4.1929
X10.4201Y-4.2929
X10.4201Y-4.3929
X10.4201Y-4.4929
X10.4201Y-4.5929
X10.4201Y-4.6929
X10.4201Y-4.7929
X10.5201Y-3.1929
X10.5201Y-3.2929
X10.5201Y-3.3929
X10.5201Y-3.4929
X10.5201Y-3.5929
X10.5201Y-3.6929
X10.5201Y-3.7929
X10.5201Y-3.8929
X10.5201Y-3.9929
X10.5201Y-4.0929
X10.5201Y-4.1929
X10.5201Y-4.2929
X10.5201Y-4.3929
X10.5201Y-4.4929
X10.5201Y-4.5929
X10.5201Y-4.6929
X10.5201Y-4.7929
T6
X9.1386Y-2.3417
X9.1386Y-2.7417
X9.3098Y-1.65
X9.7098Y-1.65
X9.8476Y-2.2752
X9.8476Y-2.4516
X9.8512Y-1.6472
X9.852Y-2.6406
X9.8551Y-2.8087
X10.2476Y-2.2752
X10.2476Y-2.4516
X10.2512Y-1.6472
X10.252Y-2.6406
X10.2551Y-2.8087
X10.4425Y-1.95
X10.4425Y-2.35
T7
X9.3937Y-2.0394
X9.3953Y-2.5744
X9.5906Y-2.0394
X9.5921Y-2.5744
T8
X7.28Y-3.4
X7.5463Y-4.3216
X7.55Y-4.75
X7.59Y-3.84
X7.6737Y-3.3016
X7.6737Y-3.4984
X7.94Y-4.2231
X7.94Y-4.42
X7.9437Y-4.6516
X7.9437Y-4.8484
X7.9837Y-3.7416
X7.9837Y-3.9384
X9.1016Y-3.7963
X9.2Y-4.19
X9.2984Y-3.7963
X9.6163Y-4.1916
X9.6163Y-4.3884
X10.01Y-4.29
T9
X6.9625Y-4.5025
X6.9625Y-4.8175
X6.9677Y-3.7051
X6.9677Y-4.0201
X6.97Y-2.61
X6.97Y-2.925
T3
X7.2184Y-4.6659G85X7.2184Y-4.6541
G05
X7.2236Y-3.8685G85X7.2236Y-3.8567
G05
X7.2259Y-2.7734G85X7.2259Y-2.7616
G05
T4
X7.0216Y-4.6836G85X7.0216Y-4.6364
G05
X7.0268Y-3.8862G85X7.0268Y-3.839
G05
X7.0291Y-2.7911G85X7.0291Y-2.7439
G05
T0
M30
