G04 #@! TF.FileFunction,Legend,Bot*
%FSLAX46Y46*%
G04 Gerber Fmt 4.6, Leading zero omitted, Abs format (unit mm)*
G04 Created by KiCad (PCBNEW 4.0.7-e2-6376~58~ubuntu16.04.1) date Thu Dec 14 21:04:02 2023*
%MOMM*%
%LPD*%
G01*
G04 APERTURE LIST*
%ADD10C,0.100000*%
%ADD11C,0.120000*%
%ADD12C,0.150000*%
%ADD13C,0.300000*%
%ADD14R,2.400000X2.100000*%
%ADD15C,1.400000*%
%ADD16R,1.400000X1.400000*%
%ADD17C,2.000000*%
%ADD18R,2.800000X2.800000*%
%ADD19C,2.800000*%
%ADD20R,2.000000X2.000000*%
%ADD21R,2.600000X2.600000*%
%ADD22O,2.600000X2.600000*%
%ADD23R,2.127200X2.127200*%
%ADD24O,2.127200X2.127200*%
%ADD25O,3.410000X1.910000*%
%ADD26O,2.900000X3.400000*%
%ADD27C,2.400000*%
%ADD28O,1.910000X3.410000*%
%ADD29R,2.100000X2.400000*%
%ADD30R,2.100000X2.100000*%
%ADD31O,2.100000X2.100000*%
%ADD32O,2.000000X2.000000*%
%ADD33R,1.900000X1.000000*%
%ADD34R,2.200000X2.200000*%
%ADD35O,2.200000X2.200000*%
%ADD36C,2.740000*%
G04 APERTURE END LIST*
D10*
D11*
X225282000Y-120088000D02*
X223282000Y-120088000D01*
X223282000Y-122228000D02*
X225282000Y-122228000D01*
X224044000Y-96828000D02*
X226044000Y-96828000D01*
X226044000Y-94688000D02*
X224044000Y-94688000D01*
X206994000Y-124914000D02*
X204994000Y-124914000D01*
X204994000Y-127054000D02*
X206994000Y-127054000D01*
X235252000Y-100130000D02*
X237252000Y-100130000D01*
X237252000Y-97990000D02*
X235252000Y-97990000D01*
X229308000Y-80788000D02*
X229308000Y-82788000D01*
X231448000Y-82788000D02*
X231448000Y-80788000D01*
X227282000Y-126438000D02*
X225282000Y-126438000D01*
X225282000Y-128578000D02*
X227282000Y-128578000D01*
X229220000Y-100570000D02*
X229220000Y-102570000D01*
X231360000Y-102570000D02*
X231360000Y-100570000D01*
X222234000Y-83766000D02*
X220234000Y-83766000D01*
X220234000Y-85906000D02*
X222234000Y-85906000D01*
X220234000Y-126438000D02*
X218234000Y-126438000D01*
X218234000Y-128578000D02*
X220234000Y-128578000D01*
X224044000Y-94034000D02*
X226044000Y-94034000D01*
X226044000Y-91894000D02*
X224044000Y-91894000D01*
X195818000Y-93160000D02*
X193818000Y-93160000D01*
X193818000Y-95300000D02*
X195818000Y-95300000D01*
X215460000Y-103810000D02*
X213460000Y-103810000D01*
X213460000Y-105950000D02*
X215460000Y-105950000D01*
X214646000Y-88446000D02*
X216646000Y-88446000D01*
X216646000Y-86306000D02*
X214646000Y-86306000D01*
X216456000Y-122228000D02*
X218456000Y-122228000D01*
X218456000Y-120088000D02*
X216456000Y-120088000D01*
X212582000Y-91640000D02*
X210582000Y-91640000D01*
X210582000Y-93780000D02*
X212582000Y-93780000D01*
X210296000Y-120088000D02*
X208296000Y-120088000D01*
X208296000Y-122228000D02*
X210296000Y-122228000D01*
X205470000Y-84274000D02*
X203470000Y-84274000D01*
X203470000Y-86414000D02*
X205470000Y-86414000D01*
X212620000Y-111080000D02*
X210620000Y-111080000D01*
X210620000Y-113220000D02*
X212620000Y-113220000D01*
X205410000Y-81610000D02*
X203410000Y-81610000D01*
X203410000Y-83750000D02*
X205410000Y-83750000D01*
X197440000Y-114340000D02*
X195440000Y-114340000D01*
X195440000Y-116480000D02*
X197440000Y-116480000D01*
X266620000Y-70760000D02*
X264620000Y-70760000D01*
X264620000Y-72900000D02*
X266620000Y-72900000D01*
X210860000Y-57600000D02*
X210860000Y-59600000D01*
X213000000Y-59600000D02*
X213000000Y-57600000D01*
X266620000Y-73140000D02*
X264620000Y-73140000D01*
X264620000Y-75280000D02*
X266620000Y-75280000D01*
X210890000Y-50420000D02*
X210890000Y-52420000D01*
X213030000Y-52420000D02*
X213030000Y-50420000D01*
X202454000Y-56080000D02*
X200454000Y-56080000D01*
X200454000Y-58220000D02*
X202454000Y-58220000D01*
X202422000Y-50238000D02*
X200422000Y-50238000D01*
X200422000Y-52378000D02*
X202422000Y-52378000D01*
X200422000Y-65586000D02*
X202422000Y-65586000D01*
X202422000Y-63446000D02*
X200422000Y-63446000D01*
X206420000Y-70710000D02*
X208420000Y-70710000D01*
X208420000Y-68570000D02*
X206420000Y-68570000D01*
D12*
X224735000Y-97905000D02*
X224735000Y-97930000D01*
X220585000Y-97905000D02*
X220585000Y-98010000D01*
X220585000Y-108055000D02*
X220585000Y-107950000D01*
X224735000Y-108055000D02*
X224735000Y-107950000D01*
X224735000Y-97905000D02*
X220585000Y-97905000D01*
X224735000Y-108055000D02*
X220585000Y-108055000D01*
X224735000Y-97930000D02*
X226110000Y-97930000D01*
X224972476Y-119165714D02*
X224972476Y-119832381D01*
X225210572Y-118784762D02*
X225448667Y-119499048D01*
X224829619Y-119499048D01*
X224448667Y-119832381D02*
X224448667Y-118832381D01*
X224353429Y-119451429D02*
X224067714Y-119832381D01*
X224067714Y-119165714D02*
X224448667Y-119546667D01*
X223734381Y-118832381D02*
X223067714Y-118832381D01*
X223496286Y-119832381D01*
X220424095Y-95275619D02*
X220376476Y-95228000D01*
X220281238Y-95180381D01*
X220043142Y-95180381D01*
X219947904Y-95228000D01*
X219900285Y-95275619D01*
X219852666Y-95370857D01*
X219852666Y-95466095D01*
X219900285Y-95608952D01*
X220471714Y-96180381D01*
X219852666Y-96180381D01*
X219471714Y-95275619D02*
X219424095Y-95228000D01*
X219328857Y-95180381D01*
X219090761Y-95180381D01*
X218995523Y-95228000D01*
X218947904Y-95275619D01*
X218900285Y-95370857D01*
X218900285Y-95466095D01*
X218947904Y-95608952D01*
X219519333Y-96180381D01*
X218900285Y-96180381D01*
X218281238Y-95180381D02*
X218185999Y-95180381D01*
X218090761Y-95228000D01*
X218043142Y-95275619D01*
X217995523Y-95370857D01*
X217947904Y-95561333D01*
X217947904Y-95799429D01*
X217995523Y-95989905D01*
X218043142Y-96085143D01*
X218090761Y-96132762D01*
X218185999Y-96180381D01*
X218281238Y-96180381D01*
X218376476Y-96132762D01*
X218424095Y-96085143D01*
X218471714Y-95989905D01*
X218519333Y-95799429D01*
X218519333Y-95561333D01*
X218471714Y-95370857D01*
X218424095Y-95275619D01*
X218376476Y-95228000D01*
X218281238Y-95180381D01*
X206978095Y-127817619D02*
X206930476Y-127770000D01*
X206835238Y-127722381D01*
X206597142Y-127722381D01*
X206501904Y-127770000D01*
X206454285Y-127817619D01*
X206406666Y-127912857D01*
X206406666Y-128008095D01*
X206454285Y-128150952D01*
X207025714Y-128722381D01*
X206406666Y-128722381D01*
X206025714Y-127817619D02*
X205978095Y-127770000D01*
X205882857Y-127722381D01*
X205644761Y-127722381D01*
X205549523Y-127770000D01*
X205501904Y-127817619D01*
X205454285Y-127912857D01*
X205454285Y-128008095D01*
X205501904Y-128150952D01*
X206073333Y-128722381D01*
X205454285Y-128722381D01*
X204835238Y-127722381D02*
X204739999Y-127722381D01*
X204644761Y-127770000D01*
X204597142Y-127817619D01*
X204549523Y-127912857D01*
X204501904Y-128103333D01*
X204501904Y-128341429D01*
X204549523Y-128531905D01*
X204597142Y-128627143D01*
X204644761Y-128674762D01*
X204739999Y-128722381D01*
X204835238Y-128722381D01*
X204930476Y-128674762D01*
X204978095Y-128627143D01*
X205025714Y-128531905D01*
X205073333Y-128341429D01*
X205073333Y-128103333D01*
X205025714Y-127912857D01*
X204978095Y-127817619D01*
X204930476Y-127770000D01*
X204835238Y-127722381D01*
X236847238Y-101412381D02*
X237418667Y-101412381D01*
X237132953Y-101412381D02*
X237132953Y-100412381D01*
X237228191Y-100555238D01*
X237323429Y-100650476D01*
X237418667Y-100698095D01*
X236466286Y-100507619D02*
X236418667Y-100460000D01*
X236323429Y-100412381D01*
X236085333Y-100412381D01*
X235990095Y-100460000D01*
X235942476Y-100507619D01*
X235894857Y-100602857D01*
X235894857Y-100698095D01*
X235942476Y-100840952D01*
X236513905Y-101412381D01*
X235894857Y-101412381D01*
X235466286Y-101412381D02*
X235466286Y-100412381D01*
X235371048Y-101031429D02*
X235085333Y-101412381D01*
X235085333Y-100745714D02*
X235466286Y-101126667D01*
X236465809Y-80494381D02*
X237037238Y-80494381D01*
X236751524Y-80494381D02*
X236751524Y-79494381D01*
X236846762Y-79637238D01*
X236942000Y-79732476D01*
X237037238Y-79780095D01*
X235846762Y-79494381D02*
X235751523Y-79494381D01*
X235656285Y-79542000D01*
X235608666Y-79589619D01*
X235561047Y-79684857D01*
X235513428Y-79875333D01*
X235513428Y-80113429D01*
X235561047Y-80303905D01*
X235608666Y-80399143D01*
X235656285Y-80446762D01*
X235751523Y-80494381D01*
X235846762Y-80494381D01*
X235942000Y-80446762D01*
X235989619Y-80399143D01*
X236037238Y-80303905D01*
X236084857Y-80113429D01*
X236084857Y-79875333D01*
X236037238Y-79684857D01*
X235989619Y-79589619D01*
X235942000Y-79542000D01*
X235846762Y-79494381D01*
X235084857Y-80494381D02*
X235084857Y-79494381D01*
X234989619Y-80113429D02*
X234703904Y-80494381D01*
X234703904Y-79827714D02*
X235084857Y-80208667D01*
X232989618Y-80494381D02*
X233561047Y-80494381D01*
X233275333Y-80494381D02*
X233275333Y-79494381D01*
X233370571Y-79637238D01*
X233465809Y-79732476D01*
X233561047Y-79780095D01*
X232608666Y-80494381D02*
X231846761Y-79494381D01*
X232465809Y-79494381D02*
X232370571Y-79542000D01*
X232322952Y-79637238D01*
X232370571Y-79732476D01*
X232465809Y-79780095D01*
X232561047Y-79732476D01*
X232608666Y-79637238D01*
X232561047Y-79542000D01*
X232465809Y-79494381D01*
X231894380Y-80446762D02*
X231846761Y-80351524D01*
X231894380Y-80256286D01*
X231989618Y-80208667D01*
X232084856Y-80256286D01*
X232132475Y-80351524D01*
X232084856Y-80446762D01*
X231989618Y-80494381D01*
X231894380Y-80446762D01*
X234315809Y-128468381D02*
X234887238Y-128468381D01*
X234601524Y-128468381D02*
X234601524Y-127468381D01*
X234696762Y-127611238D01*
X234792000Y-127706476D01*
X234887238Y-127754095D01*
X233696762Y-127468381D02*
X233601523Y-127468381D01*
X233506285Y-127516000D01*
X233458666Y-127563619D01*
X233411047Y-127658857D01*
X233363428Y-127849333D01*
X233363428Y-128087429D01*
X233411047Y-128277905D01*
X233458666Y-128373143D01*
X233506285Y-128420762D01*
X233601523Y-128468381D01*
X233696762Y-128468381D01*
X233792000Y-128420762D01*
X233839619Y-128373143D01*
X233887238Y-128277905D01*
X233934857Y-128087429D01*
X233934857Y-127849333D01*
X233887238Y-127658857D01*
X233839619Y-127563619D01*
X233792000Y-127516000D01*
X233696762Y-127468381D01*
X232934857Y-128468381D02*
X232934857Y-127468381D01*
X232839619Y-128087429D02*
X232553904Y-128468381D01*
X232553904Y-127801714D02*
X232934857Y-128182667D01*
X230839618Y-128468381D02*
X231411047Y-128468381D01*
X231125333Y-128468381D02*
X231125333Y-127468381D01*
X231220571Y-127611238D01*
X231315809Y-127706476D01*
X231411047Y-127754095D01*
X230458666Y-128468381D02*
X229696761Y-127468381D01*
X230315809Y-127468381D02*
X230220571Y-127516000D01*
X230172952Y-127611238D01*
X230220571Y-127706476D01*
X230315809Y-127754095D01*
X230411047Y-127706476D01*
X230458666Y-127611238D01*
X230411047Y-127516000D01*
X230315809Y-127468381D01*
X229744380Y-128420762D02*
X229696761Y-128325524D01*
X229744380Y-128230286D01*
X229839618Y-128182667D01*
X229934856Y-128230286D01*
X229982475Y-128325524D01*
X229934856Y-128420762D01*
X229839618Y-128468381D01*
X229744380Y-128420762D01*
X232862381Y-100974762D02*
X232862381Y-100403333D01*
X232862381Y-100689047D02*
X231862381Y-100689047D01*
X232005238Y-100593809D01*
X232100476Y-100498571D01*
X232148095Y-100403333D01*
X231957619Y-101355714D02*
X231910000Y-101403333D01*
X231862381Y-101498571D01*
X231862381Y-101736667D01*
X231910000Y-101831905D01*
X231957619Y-101879524D01*
X232052857Y-101927143D01*
X232148095Y-101927143D01*
X232290952Y-101879524D01*
X232862381Y-101308095D01*
X232862381Y-101927143D01*
X232862381Y-102355714D02*
X231862381Y-102355714D01*
X232481429Y-102450952D02*
X232862381Y-102736667D01*
X232195714Y-102736667D02*
X232576667Y-102355714D01*
X224464476Y-86653714D02*
X224464476Y-87320381D01*
X224702572Y-86272762D02*
X224940667Y-86987048D01*
X224321619Y-86987048D01*
X223940667Y-87320381D02*
X223940667Y-86320381D01*
X223845429Y-86939429D02*
X223559714Y-87320381D01*
X223559714Y-86653714D02*
X223940667Y-87034667D01*
X223226381Y-86320381D02*
X222559714Y-86320381D01*
X222988286Y-87320381D01*
X215701238Y-127055619D02*
X215653619Y-127008000D01*
X215558381Y-126960381D01*
X215320285Y-126960381D01*
X215225047Y-127008000D01*
X215177428Y-127055619D01*
X215129809Y-127150857D01*
X215129809Y-127246095D01*
X215177428Y-127388952D01*
X215748857Y-127960381D01*
X215129809Y-127960381D01*
X214510762Y-126960381D02*
X214415523Y-126960381D01*
X214320285Y-127008000D01*
X214272666Y-127055619D01*
X214225047Y-127150857D01*
X214177428Y-127341333D01*
X214177428Y-127579429D01*
X214225047Y-127769905D01*
X214272666Y-127865143D01*
X214320285Y-127912762D01*
X214415523Y-127960381D01*
X214510762Y-127960381D01*
X214606000Y-127912762D01*
X214653619Y-127865143D01*
X214701238Y-127769905D01*
X214748857Y-127579429D01*
X214748857Y-127341333D01*
X214701238Y-127150857D01*
X214653619Y-127055619D01*
X214606000Y-127008000D01*
X214510762Y-126960381D01*
X213748857Y-127960381D02*
X213748857Y-126960381D01*
X213653619Y-127579429D02*
X213367904Y-127960381D01*
X213367904Y-127293714D02*
X213748857Y-127674667D01*
X211653618Y-127960381D02*
X212225047Y-127960381D01*
X211939333Y-127960381D02*
X211939333Y-126960381D01*
X212034571Y-127103238D01*
X212129809Y-127198476D01*
X212225047Y-127246095D01*
X211272666Y-127960381D02*
X210510761Y-126960381D01*
X211129809Y-126960381D02*
X211034571Y-127008000D01*
X210986952Y-127103238D01*
X211034571Y-127198476D01*
X211129809Y-127246095D01*
X211225047Y-127198476D01*
X211272666Y-127103238D01*
X211225047Y-127008000D01*
X211129809Y-126960381D01*
X210558380Y-127912762D02*
X210510761Y-127817524D01*
X210558380Y-127722286D01*
X210653618Y-127674667D01*
X210748856Y-127722286D01*
X210796475Y-127817524D01*
X210748856Y-127912762D01*
X210653618Y-127960381D01*
X210558380Y-127912762D01*
X233989238Y-92003619D02*
X233941619Y-91956000D01*
X233846381Y-91908381D01*
X233608285Y-91908381D01*
X233513047Y-91956000D01*
X233465428Y-92003619D01*
X233417809Y-92098857D01*
X233417809Y-92194095D01*
X233465428Y-92336952D01*
X234036857Y-92908381D01*
X233417809Y-92908381D01*
X232798762Y-91908381D02*
X232703523Y-91908381D01*
X232608285Y-91956000D01*
X232560666Y-92003619D01*
X232513047Y-92098857D01*
X232465428Y-92289333D01*
X232465428Y-92527429D01*
X232513047Y-92717905D01*
X232560666Y-92813143D01*
X232608285Y-92860762D01*
X232703523Y-92908381D01*
X232798762Y-92908381D01*
X232894000Y-92860762D01*
X232941619Y-92813143D01*
X232989238Y-92717905D01*
X233036857Y-92527429D01*
X233036857Y-92289333D01*
X232989238Y-92098857D01*
X232941619Y-92003619D01*
X232894000Y-91956000D01*
X232798762Y-91908381D01*
X232036857Y-92908381D02*
X232036857Y-91908381D01*
X231941619Y-92527429D02*
X231655904Y-92908381D01*
X231655904Y-92241714D02*
X232036857Y-92622667D01*
X229941618Y-92908381D02*
X230513047Y-92908381D01*
X230227333Y-92908381D02*
X230227333Y-91908381D01*
X230322571Y-92051238D01*
X230417809Y-92146476D01*
X230513047Y-92194095D01*
X229560666Y-92908381D02*
X228798761Y-91908381D01*
X229417809Y-91908381D02*
X229322571Y-91956000D01*
X229274952Y-92051238D01*
X229322571Y-92146476D01*
X229417809Y-92194095D01*
X229513047Y-92146476D01*
X229560666Y-92051238D01*
X229513047Y-91956000D01*
X229417809Y-91908381D01*
X228846380Y-92860762D02*
X228798761Y-92765524D01*
X228846380Y-92670286D01*
X228941618Y-92622667D01*
X229036856Y-92670286D01*
X229084475Y-92765524D01*
X229036856Y-92860762D01*
X228941618Y-92908381D01*
X228846380Y-92860762D01*
X196841809Y-92782381D02*
X197413238Y-92782381D01*
X197127524Y-92782381D02*
X197127524Y-91782381D01*
X197222762Y-91925238D01*
X197318000Y-92020476D01*
X197413238Y-92068095D01*
X196222762Y-91782381D02*
X196127523Y-91782381D01*
X196032285Y-91830000D01*
X195984666Y-91877619D01*
X195937047Y-91972857D01*
X195889428Y-92163333D01*
X195889428Y-92401429D01*
X195937047Y-92591905D01*
X195984666Y-92687143D01*
X196032285Y-92734762D01*
X196127523Y-92782381D01*
X196222762Y-92782381D01*
X196318000Y-92734762D01*
X196365619Y-92687143D01*
X196413238Y-92591905D01*
X196460857Y-92401429D01*
X196460857Y-92163333D01*
X196413238Y-91972857D01*
X196365619Y-91877619D01*
X196318000Y-91830000D01*
X196222762Y-91782381D01*
X195460857Y-92782381D02*
X195460857Y-91782381D01*
X195365619Y-92401429D02*
X195079904Y-92782381D01*
X195079904Y-92115714D02*
X195460857Y-92496667D01*
X193365618Y-92782381D02*
X193937047Y-92782381D01*
X193651333Y-92782381D02*
X193651333Y-91782381D01*
X193746571Y-91925238D01*
X193841809Y-92020476D01*
X193937047Y-92068095D01*
X192984666Y-92782381D02*
X192222761Y-91782381D01*
X192841809Y-91782381D02*
X192746571Y-91830000D01*
X192698952Y-91925238D01*
X192746571Y-92020476D01*
X192841809Y-92068095D01*
X192937047Y-92020476D01*
X192984666Y-91925238D01*
X192937047Y-91830000D01*
X192841809Y-91782381D01*
X192270380Y-92734762D02*
X192222761Y-92639524D01*
X192270380Y-92544286D01*
X192365618Y-92496667D01*
X192460856Y-92544286D01*
X192508475Y-92639524D01*
X192460856Y-92734762D01*
X192365618Y-92782381D01*
X192270380Y-92734762D01*
X216483809Y-103432381D02*
X217055238Y-103432381D01*
X216769524Y-103432381D02*
X216769524Y-102432381D01*
X216864762Y-102575238D01*
X216960000Y-102670476D01*
X217055238Y-102718095D01*
X215864762Y-102432381D02*
X215769523Y-102432381D01*
X215674285Y-102480000D01*
X215626666Y-102527619D01*
X215579047Y-102622857D01*
X215531428Y-102813333D01*
X215531428Y-103051429D01*
X215579047Y-103241905D01*
X215626666Y-103337143D01*
X215674285Y-103384762D01*
X215769523Y-103432381D01*
X215864762Y-103432381D01*
X215960000Y-103384762D01*
X216007619Y-103337143D01*
X216055238Y-103241905D01*
X216102857Y-103051429D01*
X216102857Y-102813333D01*
X216055238Y-102622857D01*
X216007619Y-102527619D01*
X215960000Y-102480000D01*
X215864762Y-102432381D01*
X215102857Y-103432381D02*
X215102857Y-102432381D01*
X215007619Y-103051429D02*
X214721904Y-103432381D01*
X214721904Y-102765714D02*
X215102857Y-103146667D01*
X213007618Y-103432381D02*
X213579047Y-103432381D01*
X213293333Y-103432381D02*
X213293333Y-102432381D01*
X213388571Y-102575238D01*
X213483809Y-102670476D01*
X213579047Y-102718095D01*
X212626666Y-103432381D02*
X211864761Y-102432381D01*
X212483809Y-102432381D02*
X212388571Y-102480000D01*
X212340952Y-102575238D01*
X212388571Y-102670476D01*
X212483809Y-102718095D01*
X212579047Y-102670476D01*
X212626666Y-102575238D01*
X212579047Y-102480000D01*
X212483809Y-102432381D01*
X211912380Y-103384762D02*
X211864761Y-103289524D01*
X211912380Y-103194286D01*
X212007618Y-103146667D01*
X212102856Y-103194286D01*
X212150475Y-103289524D01*
X212102856Y-103384762D01*
X212007618Y-103432381D01*
X211912380Y-103384762D01*
X214209238Y-85796381D02*
X214780667Y-85796381D01*
X214494953Y-85796381D02*
X214494953Y-84796381D01*
X214590191Y-84939238D01*
X214685429Y-85034476D01*
X214780667Y-85082095D01*
X213780667Y-85796381D02*
X213780667Y-84796381D01*
X213685429Y-85415429D02*
X213399714Y-85796381D01*
X213399714Y-85129714D02*
X213780667Y-85510667D01*
X212828286Y-85224952D02*
X212923524Y-85177333D01*
X212971143Y-85129714D01*
X213018762Y-85034476D01*
X213018762Y-84986857D01*
X212971143Y-84891619D01*
X212923524Y-84844000D01*
X212828286Y-84796381D01*
X212637809Y-84796381D01*
X212542571Y-84844000D01*
X212494952Y-84891619D01*
X212447333Y-84986857D01*
X212447333Y-85034476D01*
X212494952Y-85129714D01*
X212542571Y-85177333D01*
X212637809Y-85224952D01*
X212828286Y-85224952D01*
X212923524Y-85272571D01*
X212971143Y-85320190D01*
X213018762Y-85415429D01*
X213018762Y-85605905D01*
X212971143Y-85701143D01*
X212923524Y-85748762D01*
X212828286Y-85796381D01*
X212637809Y-85796381D01*
X212542571Y-85748762D01*
X212494952Y-85701143D01*
X212447333Y-85605905D01*
X212447333Y-85415429D01*
X212494952Y-85320190D01*
X212542571Y-85272571D01*
X212637809Y-85224952D01*
X218082667Y-118673619D02*
X218035048Y-118626000D01*
X217939810Y-118578381D01*
X217701714Y-118578381D01*
X217606476Y-118626000D01*
X217558857Y-118673619D01*
X217511238Y-118768857D01*
X217511238Y-118864095D01*
X217558857Y-119006952D01*
X218130286Y-119578381D01*
X217511238Y-119578381D01*
X217082667Y-119578381D02*
X217082667Y-118578381D01*
X216987429Y-119197429D02*
X216701714Y-119578381D01*
X216701714Y-118911714D02*
X217082667Y-119292667D01*
X216320762Y-118673619D02*
X216273143Y-118626000D01*
X216177905Y-118578381D01*
X215939809Y-118578381D01*
X215844571Y-118626000D01*
X215796952Y-118673619D01*
X215749333Y-118768857D01*
X215749333Y-118864095D01*
X215796952Y-119006952D01*
X216368381Y-119578381D01*
X215749333Y-119578381D01*
X217684286Y-92224381D02*
X217065238Y-92224381D01*
X217398572Y-92605333D01*
X217255714Y-92605333D01*
X217160476Y-92652952D01*
X217112857Y-92700571D01*
X217065238Y-92795810D01*
X217065238Y-93033905D01*
X217112857Y-93129143D01*
X217160476Y-93176762D01*
X217255714Y-93224381D01*
X217541429Y-93224381D01*
X217636667Y-93176762D01*
X217684286Y-93129143D01*
X216636667Y-93224381D02*
X216636667Y-92224381D01*
X216541429Y-92843429D02*
X216255714Y-93224381D01*
X216255714Y-92557714D02*
X216636667Y-92938667D01*
X215922381Y-92224381D02*
X215303333Y-92224381D01*
X215636667Y-92605333D01*
X215493809Y-92605333D01*
X215398571Y-92652952D01*
X215350952Y-92700571D01*
X215303333Y-92795810D01*
X215303333Y-93033905D01*
X215350952Y-93129143D01*
X215398571Y-93176762D01*
X215493809Y-93224381D01*
X215779524Y-93224381D01*
X215874762Y-93176762D01*
X215922381Y-93129143D01*
X209240286Y-118578381D02*
X208621238Y-118578381D01*
X208954572Y-118959333D01*
X208811714Y-118959333D01*
X208716476Y-119006952D01*
X208668857Y-119054571D01*
X208621238Y-119149810D01*
X208621238Y-119387905D01*
X208668857Y-119483143D01*
X208716476Y-119530762D01*
X208811714Y-119578381D01*
X209097429Y-119578381D01*
X209192667Y-119530762D01*
X209240286Y-119483143D01*
X208192667Y-119578381D02*
X208192667Y-118578381D01*
X208097429Y-119197429D02*
X207811714Y-119578381D01*
X207811714Y-118911714D02*
X208192667Y-119292667D01*
X207478381Y-118578381D02*
X206859333Y-118578381D01*
X207192667Y-118959333D01*
X207049809Y-118959333D01*
X206954571Y-119006952D01*
X206906952Y-119054571D01*
X206859333Y-119149810D01*
X206859333Y-119387905D01*
X206906952Y-119483143D01*
X206954571Y-119530762D01*
X207049809Y-119578381D01*
X207335524Y-119578381D01*
X207430762Y-119530762D01*
X207478381Y-119483143D01*
X205890667Y-87177619D02*
X205843048Y-87130000D01*
X205747810Y-87082381D01*
X205509714Y-87082381D01*
X205414476Y-87130000D01*
X205366857Y-87177619D01*
X205319238Y-87272857D01*
X205319238Y-87368095D01*
X205366857Y-87510952D01*
X205938286Y-88082381D01*
X205319238Y-88082381D01*
X204890667Y-88082381D02*
X204890667Y-87082381D01*
X204795429Y-87701429D02*
X204509714Y-88082381D01*
X204509714Y-87415714D02*
X204890667Y-87796667D01*
X204128762Y-87177619D02*
X204081143Y-87130000D01*
X203985905Y-87082381D01*
X203747809Y-87082381D01*
X203652571Y-87130000D01*
X203604952Y-87177619D01*
X203557333Y-87272857D01*
X203557333Y-87368095D01*
X203604952Y-87510952D01*
X204176381Y-88082381D01*
X203557333Y-88082381D01*
X212786667Y-109797619D02*
X212739048Y-109750000D01*
X212643810Y-109702381D01*
X212405714Y-109702381D01*
X212310476Y-109750000D01*
X212262857Y-109797619D01*
X212215238Y-109892857D01*
X212215238Y-109988095D01*
X212262857Y-110130952D01*
X212834286Y-110702381D01*
X212215238Y-110702381D01*
X211786667Y-110702381D02*
X211786667Y-109702381D01*
X211691429Y-110321429D02*
X211405714Y-110702381D01*
X211405714Y-110035714D02*
X211786667Y-110416667D01*
X211024762Y-109797619D02*
X210977143Y-109750000D01*
X210881905Y-109702381D01*
X210643809Y-109702381D01*
X210548571Y-109750000D01*
X210500952Y-109797619D01*
X210453333Y-109892857D01*
X210453333Y-109988095D01*
X210500952Y-110130952D01*
X211072381Y-110702381D01*
X210453333Y-110702381D01*
X200556667Y-82097619D02*
X200509048Y-82050000D01*
X200413810Y-82002381D01*
X200175714Y-82002381D01*
X200080476Y-82050000D01*
X200032857Y-82097619D01*
X199985238Y-82192857D01*
X199985238Y-82288095D01*
X200032857Y-82430952D01*
X200604286Y-83002381D01*
X199985238Y-83002381D01*
X199556667Y-83002381D02*
X199556667Y-82002381D01*
X199461429Y-82621429D02*
X199175714Y-83002381D01*
X199175714Y-82335714D02*
X199556667Y-82716667D01*
X198794762Y-82097619D02*
X198747143Y-82050000D01*
X198651905Y-82002381D01*
X198413809Y-82002381D01*
X198318571Y-82050000D01*
X198270952Y-82097619D01*
X198223333Y-82192857D01*
X198223333Y-82288095D01*
X198270952Y-82430952D01*
X198842381Y-83002381D01*
X198223333Y-83002381D01*
X197606667Y-113057619D02*
X197559048Y-113010000D01*
X197463810Y-112962381D01*
X197225714Y-112962381D01*
X197130476Y-113010000D01*
X197082857Y-113057619D01*
X197035238Y-113152857D01*
X197035238Y-113248095D01*
X197082857Y-113390952D01*
X197654286Y-113962381D01*
X197035238Y-113962381D01*
X196606667Y-113962381D02*
X196606667Y-112962381D01*
X196511429Y-113581429D02*
X196225714Y-113962381D01*
X196225714Y-113295714D02*
X196606667Y-113676667D01*
X195844762Y-113057619D02*
X195797143Y-113010000D01*
X195701905Y-112962381D01*
X195463809Y-112962381D01*
X195368571Y-113010000D01*
X195320952Y-113057619D01*
X195273333Y-113152857D01*
X195273333Y-113248095D01*
X195320952Y-113390952D01*
X195892381Y-113962381D01*
X195273333Y-113962381D01*
X269930476Y-69715714D02*
X269930476Y-70382381D01*
X270168572Y-69334762D02*
X270406667Y-70049048D01*
X269787619Y-70049048D01*
X269406667Y-70382381D02*
X269406667Y-69382381D01*
X269311429Y-70001429D02*
X269025714Y-70382381D01*
X269025714Y-69715714D02*
X269406667Y-70096667D01*
X268692381Y-69382381D02*
X268025714Y-69382381D01*
X268454286Y-70382381D01*
X213320381Y-57385714D02*
X213320381Y-58004762D01*
X213701333Y-57671428D01*
X213701333Y-57814286D01*
X213748952Y-57909524D01*
X213796571Y-57957143D01*
X213891810Y-58004762D01*
X214129905Y-58004762D01*
X214225143Y-57957143D01*
X214272762Y-57909524D01*
X214320381Y-57814286D01*
X214320381Y-57528571D01*
X214272762Y-57433333D01*
X214225143Y-57385714D01*
X214320381Y-58433333D02*
X213320381Y-58433333D01*
X213939429Y-58528571D02*
X214320381Y-58814286D01*
X213653714Y-58814286D02*
X214034667Y-58433333D01*
X213320381Y-59147619D02*
X213320381Y-59766667D01*
X213701333Y-59433333D01*
X213701333Y-59576191D01*
X213748952Y-59671429D01*
X213796571Y-59719048D01*
X213891810Y-59766667D01*
X214129905Y-59766667D01*
X214225143Y-59719048D01*
X214272762Y-59671429D01*
X214320381Y-59576191D01*
X214320381Y-59290476D01*
X214272762Y-59195238D01*
X214225143Y-59147619D01*
X261548476Y-73953714D02*
X261548476Y-74620381D01*
X261786572Y-73572762D02*
X262024667Y-74287048D01*
X261405619Y-74287048D01*
X261024667Y-74620381D02*
X261024667Y-73620381D01*
X260929429Y-74239429D02*
X260643714Y-74620381D01*
X260643714Y-73953714D02*
X261024667Y-74334667D01*
X260310381Y-73620381D02*
X259643714Y-73620381D01*
X260072286Y-74620381D01*
X213574381Y-50205714D02*
X213574381Y-50824762D01*
X213955333Y-50491428D01*
X213955333Y-50634286D01*
X214002952Y-50729524D01*
X214050571Y-50777143D01*
X214145810Y-50824762D01*
X214383905Y-50824762D01*
X214479143Y-50777143D01*
X214526762Y-50729524D01*
X214574381Y-50634286D01*
X214574381Y-50348571D01*
X214526762Y-50253333D01*
X214479143Y-50205714D01*
X214574381Y-51253333D02*
X213574381Y-51253333D01*
X214193429Y-51348571D02*
X214574381Y-51634286D01*
X213907714Y-51634286D02*
X214288667Y-51253333D01*
X213574381Y-51967619D02*
X213574381Y-52586667D01*
X213955333Y-52253333D01*
X213955333Y-52396191D01*
X214002952Y-52491429D01*
X214050571Y-52539048D01*
X214145810Y-52586667D01*
X214383905Y-52586667D01*
X214479143Y-52539048D01*
X214526762Y-52491429D01*
X214574381Y-52396191D01*
X214574381Y-52110476D01*
X214526762Y-52015238D01*
X214479143Y-51967619D01*
X202620667Y-54797619D02*
X202573048Y-54750000D01*
X202477810Y-54702381D01*
X202239714Y-54702381D01*
X202144476Y-54750000D01*
X202096857Y-54797619D01*
X202049238Y-54892857D01*
X202049238Y-54988095D01*
X202096857Y-55130952D01*
X202668286Y-55702381D01*
X202049238Y-55702381D01*
X201620667Y-55702381D02*
X201620667Y-54702381D01*
X201525429Y-55321429D02*
X201239714Y-55702381D01*
X201239714Y-55035714D02*
X201620667Y-55416667D01*
X200858762Y-54797619D02*
X200811143Y-54750000D01*
X200715905Y-54702381D01*
X200477809Y-54702381D01*
X200382571Y-54750000D01*
X200334952Y-54797619D01*
X200287333Y-54892857D01*
X200287333Y-54988095D01*
X200334952Y-55130952D01*
X200906381Y-55702381D01*
X200287333Y-55702381D01*
X202017238Y-53792381D02*
X202588667Y-53792381D01*
X202302953Y-53792381D02*
X202302953Y-52792381D01*
X202398191Y-52935238D01*
X202493429Y-53030476D01*
X202588667Y-53078095D01*
X201398191Y-52792381D02*
X201302952Y-52792381D01*
X201207714Y-52840000D01*
X201160095Y-52887619D01*
X201112476Y-52982857D01*
X201064857Y-53173333D01*
X201064857Y-53411429D01*
X201112476Y-53601905D01*
X201160095Y-53697143D01*
X201207714Y-53744762D01*
X201302952Y-53792381D01*
X201398191Y-53792381D01*
X201493429Y-53744762D01*
X201541048Y-53697143D01*
X201588667Y-53601905D01*
X201636286Y-53411429D01*
X201636286Y-53173333D01*
X201588667Y-52982857D01*
X201541048Y-52887619D01*
X201493429Y-52840000D01*
X201398191Y-52792381D01*
X200636286Y-53792381D02*
X200636286Y-52792381D01*
X200541048Y-53411429D02*
X200255333Y-53792381D01*
X200255333Y-53125714D02*
X200636286Y-53506667D01*
X199636667Y-61983619D02*
X199589048Y-61936000D01*
X199493810Y-61888381D01*
X199255714Y-61888381D01*
X199160476Y-61936000D01*
X199112857Y-61983619D01*
X199065238Y-62078857D01*
X199065238Y-62174095D01*
X199112857Y-62316952D01*
X199684286Y-62888381D01*
X199065238Y-62888381D01*
X198684286Y-61983619D02*
X198636667Y-61936000D01*
X198541429Y-61888381D01*
X198303333Y-61888381D01*
X198208095Y-61936000D01*
X198160476Y-61983619D01*
X198112857Y-62078857D01*
X198112857Y-62174095D01*
X198160476Y-62316952D01*
X198731905Y-62888381D01*
X198112857Y-62888381D01*
X197684286Y-62888381D02*
X197684286Y-61888381D01*
X197589048Y-62507429D02*
X197303333Y-62888381D01*
X197303333Y-62221714D02*
X197684286Y-62602667D01*
X208658095Y-71087619D02*
X208610476Y-71040000D01*
X208515238Y-70992381D01*
X208277142Y-70992381D01*
X208181904Y-71040000D01*
X208134285Y-71087619D01*
X208086666Y-71182857D01*
X208086666Y-71278095D01*
X208134285Y-71420952D01*
X208705714Y-71992381D01*
X208086666Y-71992381D01*
X207705714Y-71087619D02*
X207658095Y-71040000D01*
X207562857Y-70992381D01*
X207324761Y-70992381D01*
X207229523Y-71040000D01*
X207181904Y-71087619D01*
X207134285Y-71182857D01*
X207134285Y-71278095D01*
X207181904Y-71420952D01*
X207753333Y-71992381D01*
X207134285Y-71992381D01*
X206515238Y-70992381D02*
X206419999Y-70992381D01*
X206324761Y-71040000D01*
X206277142Y-71087619D01*
X206229523Y-71182857D01*
X206181904Y-71373333D01*
X206181904Y-71611429D01*
X206229523Y-71801905D01*
X206277142Y-71897143D01*
X206324761Y-71944762D01*
X206419999Y-71992381D01*
X206515238Y-71992381D01*
X206610476Y-71944762D01*
X206658095Y-71897143D01*
X206705714Y-71801905D01*
X206753333Y-71611429D01*
X206753333Y-71373333D01*
X206705714Y-71182857D01*
X206658095Y-71087619D01*
X206610476Y-71040000D01*
X206515238Y-70992381D01*
X223112381Y-101187524D02*
X222112381Y-101187524D01*
X222112381Y-101425619D01*
X222160000Y-101568477D01*
X222255238Y-101663715D01*
X222350476Y-101711334D01*
X222540952Y-101758953D01*
X222683810Y-101758953D01*
X222874286Y-101711334D01*
X222969524Y-101663715D01*
X223064762Y-101568477D01*
X223112381Y-101425619D01*
X223112381Y-101187524D01*
X222160000Y-102711334D02*
X222112381Y-102616096D01*
X222112381Y-102473239D01*
X222160000Y-102330381D01*
X222255238Y-102235143D01*
X222350476Y-102187524D01*
X222540952Y-102139905D01*
X222683810Y-102139905D01*
X222874286Y-102187524D01*
X222969524Y-102235143D01*
X223064762Y-102330381D01*
X223112381Y-102473239D01*
X223112381Y-102568477D01*
X223064762Y-102711334D01*
X223017143Y-102758953D01*
X222683810Y-102758953D01*
X222683810Y-102568477D01*
X222445714Y-103616096D02*
X223112381Y-103616096D01*
X222064762Y-103378000D02*
X222779048Y-103139905D01*
X222779048Y-103758953D01*
X223112381Y-104663715D02*
X223112381Y-104092286D01*
X223112381Y-104378000D02*
X222112381Y-104378000D01*
X222255238Y-104282762D01*
X222350476Y-104187524D01*
X222398095Y-104092286D01*
X222207619Y-105044667D02*
X222160000Y-105092286D01*
X222112381Y-105187524D01*
X222112381Y-105425620D01*
X222160000Y-105520858D01*
X222207619Y-105568477D01*
X222302857Y-105616096D01*
X222398095Y-105616096D01*
X222540952Y-105568477D01*
X223112381Y-104997048D01*
X223112381Y-105616096D01*
%LPC*%
D13*
X201056666Y-72185429D02*
X201532856Y-72185429D01*
X201532856Y-69328286D01*
X201056666Y-69328286D01*
X200390000Y-70947333D02*
X199437619Y-70947333D01*
X200580476Y-71518762D02*
X199913809Y-69518762D01*
X199247142Y-71518762D01*
X198580476Y-71518762D02*
X198580476Y-70185429D01*
X198580476Y-70566381D02*
X198485237Y-70375905D01*
X198389999Y-70280667D01*
X198199523Y-70185429D01*
X198009047Y-70185429D01*
X197628095Y-70185429D02*
X196866190Y-70185429D01*
X197342381Y-69518762D02*
X197342381Y-71233048D01*
X197247142Y-71423524D01*
X197056666Y-71518762D01*
X196866190Y-71518762D01*
X200437619Y-73771143D02*
X199770952Y-73771143D01*
X199485238Y-74818762D02*
X200437619Y-74818762D01*
X200437619Y-72818762D01*
X199485238Y-72818762D01*
X198342380Y-74818762D02*
X198532856Y-74723524D01*
X198628095Y-74533048D01*
X198628095Y-72818762D01*
X196818571Y-74723524D02*
X197009047Y-74818762D01*
X197389999Y-74818762D01*
X197580476Y-74723524D01*
X197675714Y-74533048D01*
X197675714Y-73771143D01*
X197580476Y-73580667D01*
X197389999Y-73485429D01*
X197009047Y-73485429D01*
X196818571Y-73580667D01*
X196723333Y-73771143D01*
X196723333Y-73961619D01*
X197675714Y-74152095D01*
X200818571Y-78118762D02*
X200818571Y-76118762D01*
X200151904Y-77547333D01*
X199485237Y-76118762D01*
X199485237Y-78118762D01*
X197770952Y-78023524D02*
X197961428Y-78118762D01*
X198342380Y-78118762D01*
X198532857Y-78023524D01*
X198628095Y-77833048D01*
X198628095Y-77071143D01*
X198532857Y-76880667D01*
X198342380Y-76785429D01*
X197961428Y-76785429D01*
X197770952Y-76880667D01*
X197675714Y-77071143D01*
X197675714Y-77261619D01*
X198628095Y-77452095D01*
X197009047Y-78785429D02*
X196532856Y-78785429D01*
X196532856Y-75928286D01*
X197009047Y-75928286D01*
D14*
X222282000Y-121158000D03*
X226282000Y-121158000D03*
D15*
X208050000Y-52340000D03*
X206780000Y-53610000D03*
D16*
X206780000Y-51070000D03*
D17*
X238620000Y-76240000D03*
X233620000Y-76240000D03*
X239650000Y-112730000D03*
X234650000Y-112730000D03*
X230632000Y-118324000D03*
X230632000Y-115824000D03*
X230124000Y-89368000D03*
X230124000Y-86868000D03*
D18*
X243640000Y-65390000D03*
D19*
X238640000Y-65390000D03*
D18*
X238600000Y-51800000D03*
D19*
X243600000Y-51800000D03*
D17*
X214120000Y-95280000D03*
X209120000Y-95280000D03*
X255160000Y-51860000D03*
X250160000Y-51860000D03*
X247190000Y-75390000D03*
X242190000Y-75390000D03*
X210470000Y-108510000D03*
X215470000Y-108510000D03*
D20*
X229350000Y-45980000D03*
D17*
X229350000Y-43480000D03*
X229800000Y-76320000D03*
X224800000Y-76320000D03*
X226820000Y-111750000D03*
X221820000Y-111750000D03*
D20*
X224240000Y-66690000D03*
D17*
X226740000Y-66690000D03*
D20*
X215880000Y-64380000D03*
D17*
X215880000Y-66880000D03*
D20*
X218020000Y-52990000D03*
D17*
X218020000Y-50490000D03*
X206462000Y-78994000D03*
X203962000Y-78994000D03*
X206502000Y-114554000D03*
X206502000Y-117054000D03*
D21*
X260480000Y-71340000D03*
D22*
X250320000Y-71340000D03*
D21*
X250240000Y-67070000D03*
D22*
X260400000Y-67070000D03*
D21*
X250130000Y-62270000D03*
D22*
X260290000Y-62270000D03*
D21*
X260290000Y-57790000D03*
D22*
X250130000Y-57790000D03*
D21*
X232120000Y-69640000D03*
D22*
X232120000Y-59480000D03*
D21*
X265240000Y-49530000D03*
D22*
X265240000Y-59690000D03*
D21*
X250220000Y-41840000D03*
D22*
X260380000Y-41840000D03*
D21*
X236470000Y-41910000D03*
D22*
X246630000Y-41910000D03*
D23*
X264670000Y-81100000D03*
D24*
X267210000Y-81100000D03*
X264670000Y-83640000D03*
X267210000Y-83640000D03*
X264670000Y-86180000D03*
X267210000Y-86180000D03*
X264670000Y-88720000D03*
X267210000Y-88720000D03*
X264670000Y-91260000D03*
X267210000Y-91260000D03*
X264670000Y-93800000D03*
X267210000Y-93800000D03*
X264670000Y-96340000D03*
X267210000Y-96340000D03*
X264670000Y-98880000D03*
X267210000Y-98880000D03*
X264670000Y-101420000D03*
X267210000Y-101420000D03*
X264670000Y-103960000D03*
X267210000Y-103960000D03*
X264670000Y-106500000D03*
X267210000Y-106500000D03*
X264670000Y-109040000D03*
X267210000Y-109040000D03*
X264670000Y-111580000D03*
X267210000Y-111580000D03*
X264670000Y-114120000D03*
X267210000Y-114120000D03*
X264670000Y-116660000D03*
X267210000Y-116660000D03*
X264670000Y-119200000D03*
X267210000Y-119200000D03*
X264670000Y-121740000D03*
X267210000Y-121740000D03*
D25*
X266010000Y-63520000D03*
X266010000Y-66060000D03*
X266010000Y-68600000D03*
D20*
X183480000Y-98110000D03*
D26*
X178480000Y-98110000D03*
D27*
X176980000Y-94110000D03*
X176980000Y-102110000D03*
D20*
X183348000Y-118364000D03*
D26*
X178348000Y-118364000D03*
D27*
X176848000Y-114364000D03*
X176848000Y-122364000D03*
D20*
X183538000Y-70294000D03*
D26*
X178538000Y-70294000D03*
D27*
X177038000Y-66294000D03*
X177038000Y-74294000D03*
X205960000Y-107640000D03*
D28*
X257330000Y-100076000D03*
X254790000Y-100076000D03*
D15*
X208150000Y-58470000D03*
X206880000Y-59740000D03*
D16*
X206880000Y-57200000D03*
D15*
X208170000Y-64480000D03*
X206900000Y-65750000D03*
D16*
X206900000Y-63210000D03*
D14*
X227044000Y-95758000D03*
X223044000Y-95758000D03*
X203994000Y-125984000D03*
X207994000Y-125984000D03*
X238252000Y-99060000D03*
X234252000Y-99060000D03*
D29*
X230378000Y-83788000D03*
X230378000Y-79788000D03*
D14*
X224282000Y-127508000D03*
X228282000Y-127508000D03*
D29*
X230290000Y-103570000D03*
X230290000Y-99570000D03*
D14*
X219234000Y-84836000D03*
X223234000Y-84836000D03*
X217234000Y-127508000D03*
X221234000Y-127508000D03*
X227044000Y-92964000D03*
X223044000Y-92964000D03*
X192818000Y-94230000D03*
X196818000Y-94230000D03*
X212460000Y-104880000D03*
X216460000Y-104880000D03*
X217646000Y-87376000D03*
X213646000Y-87376000D03*
X219456000Y-121158000D03*
X215456000Y-121158000D03*
X209582000Y-92710000D03*
X213582000Y-92710000D03*
X207296000Y-121158000D03*
X211296000Y-121158000D03*
X202470000Y-85344000D03*
X206470000Y-85344000D03*
X209620000Y-112150000D03*
X213620000Y-112150000D03*
X202410000Y-82680000D03*
X206410000Y-82680000D03*
X194440000Y-115410000D03*
X198440000Y-115410000D03*
X263620000Y-71830000D03*
X267620000Y-71830000D03*
D29*
X211930000Y-60600000D03*
X211930000Y-56600000D03*
D14*
X263620000Y-74210000D03*
X267620000Y-74210000D03*
D29*
X211960000Y-53420000D03*
X211960000Y-49420000D03*
D14*
X199454000Y-57150000D03*
X203454000Y-57150000D03*
X199422000Y-51308000D03*
X203422000Y-51308000D03*
X203422000Y-64516000D03*
X199422000Y-64516000D03*
X209420000Y-69640000D03*
X205420000Y-69640000D03*
D30*
X212560000Y-74930000D03*
D31*
X215100000Y-74930000D03*
X217640000Y-74930000D03*
D30*
X242610000Y-96590000D03*
D31*
X245150000Y-96590000D03*
X247690000Y-96590000D03*
D20*
X234530000Y-125920000D03*
D32*
X254850000Y-118300000D03*
X237070000Y-125920000D03*
X252310000Y-118300000D03*
X239610000Y-125920000D03*
X249770000Y-118300000D03*
X242150000Y-125920000D03*
X247230000Y-118300000D03*
X244690000Y-125920000D03*
X244690000Y-118300000D03*
X247230000Y-125920000D03*
X242150000Y-118300000D03*
X249770000Y-125920000D03*
X239610000Y-118300000D03*
X252310000Y-125920000D03*
X237070000Y-118300000D03*
X254850000Y-125920000D03*
X234530000Y-118300000D03*
D20*
X233720000Y-90040000D03*
D32*
X254040000Y-82420000D03*
X236260000Y-90040000D03*
X251500000Y-82420000D03*
X238800000Y-90040000D03*
X248960000Y-82420000D03*
X241340000Y-90040000D03*
X246420000Y-82420000D03*
X243880000Y-90040000D03*
X243880000Y-82420000D03*
X246420000Y-90040000D03*
X241340000Y-82420000D03*
X248960000Y-90040000D03*
X238800000Y-82420000D03*
X251500000Y-90040000D03*
X236260000Y-82420000D03*
X254040000Y-90040000D03*
X233720000Y-82420000D03*
D33*
X225360000Y-98535000D03*
X225360000Y-99805000D03*
X225360000Y-101075000D03*
X225360000Y-102345000D03*
X225360000Y-103615000D03*
X225360000Y-104885000D03*
X225360000Y-106155000D03*
X225360000Y-107425000D03*
X219960000Y-107425000D03*
X219960000Y-106155000D03*
X219960000Y-104885000D03*
X219960000Y-103615000D03*
X219960000Y-102345000D03*
X219960000Y-101075000D03*
X219960000Y-99805000D03*
X219960000Y-98535000D03*
D34*
X257230000Y-75530000D03*
D35*
X254690000Y-75530000D03*
X252150000Y-75530000D03*
D34*
X260390000Y-52160000D03*
D35*
X260390000Y-49620000D03*
X260390000Y-47080000D03*
D34*
X230886000Y-52070000D03*
D35*
X228346000Y-52070000D03*
X225806000Y-52070000D03*
D36*
X236180000Y-96426000D03*
X233680000Y-106426000D03*
X231180000Y-96426000D03*
X244254000Y-106466000D03*
X254254000Y-108966000D03*
X244254000Y-111466000D03*
X202786000Y-100036000D03*
X192786000Y-97536000D03*
X202786000Y-95036000D03*
X201676000Y-112268000D03*
X191676000Y-109768000D03*
X201676000Y-107268000D03*
X194912000Y-88860000D03*
X184912000Y-86360000D03*
X194912000Y-83860000D03*
X201770000Y-123150000D03*
X191770000Y-120650000D03*
X201770000Y-118150000D03*
D20*
X211328000Y-124460000D03*
D32*
X226568000Y-116840000D03*
X213868000Y-124460000D03*
X224028000Y-116840000D03*
X216408000Y-124460000D03*
X221488000Y-116840000D03*
X218948000Y-124460000D03*
X218948000Y-116840000D03*
X221488000Y-124460000D03*
X216408000Y-116840000D03*
X224028000Y-124460000D03*
X213868000Y-116840000D03*
X226568000Y-124460000D03*
X211328000Y-116840000D03*
D20*
X211582000Y-89916000D03*
D32*
X226822000Y-82296000D03*
X214122000Y-89916000D03*
X224282000Y-82296000D03*
X216662000Y-89916000D03*
X221742000Y-82296000D03*
X219202000Y-89916000D03*
X219202000Y-82296000D03*
X221742000Y-89916000D03*
X216662000Y-82296000D03*
X224282000Y-89916000D03*
X214122000Y-82296000D03*
X226822000Y-89916000D03*
X211582000Y-82296000D03*
D34*
X227076000Y-58420000D03*
D35*
X224536000Y-58420000D03*
X221996000Y-58420000D03*
M02*
